<?xml version="1.0" encoding="UTF-8"?>
<svg id="Layer_1" data-name="Layer 1" xmlns="http://www.w3.org/2000/svg" viewBox="0 0 360 360">
  <defs>
    <style>
      .cls-1 {
        fill: #fff;
      }

      .cls-2 {
        fill: #60bd61;
      }

      .cls-3 {
        fill: #58b477;
      }

      .cls-4 {
        fill: #549f72;
      }

      .cls-5 {
        fill: #126cc9;
      }

      .cls-6 {
        fill: #231f20;
      }
    </style>
  </defs>
  <rect class="cls-6" x="0" width="360" height="360"/>
  <g>
    <path class="cls-1" d="m314.5,236.53c-.07.08-.15.12-.25.15-2.29-.05-4.59-.15-6.88-.13-2.76.02-5.51.13-8.27.2-.22,0-.44,0-.66,0-.26,0-.52,0-.77,0-.34,0-.67,0-1.01,0-.14,0-.29,0-.43,0-1.29,0-2.59,0-3.88,0-.64-.07-1.28-.2-1.93-.2-6-.02-12-.02-18,0-.64,0-1.28.14-1.93.21-.34,0-.68,0-1.01,0-.14,0-.29,0-.43,0-.33,0-.67,0-1,0-.14,0-.28,0-.43,0-.34,0-.68,0-1.02.01-.58-.07-1.17-.21-1.75-.21-13.8-.01-27.6-.01-41.4,0-.53,0-1.05.13-1.58.19-3.44,0-6.88,0-10.33.01-.47-.07-.93-.2-1.4-.2-8.02-.01-16.04-.01-24.07,0-.46,0-.93.14-1.39.21-.34,0-.68,0-1.01,0-.14,0-.29,0-.43,0-.33,0-.67,0-1,0-.14,0-.28,0-.43-.01-4.39,0-8.78.01-13.18.02-4.19,0-8.37.01-12.56.02-.22,0-.44,0-.66,0-.26,0-.52,0-.77,0-.34,0-.67,0-1.01,0-.14,0-.28,0-.43,0-.33,0-.67,0-1,0-.14,0-.28,0-.43,0-1.06,0-2.11,0-3.17,0-.7-.07-1.41-.2-2.11-.2-21.37,0-42.73,0-64.1,0-.7,0-1.41.14-2.11.21-.34,0-.68,0-1.01,0-.14,0-.28,0-.43,0-.33,0-.67,0-1,0-.14,0-.28,0-.43,0-1.77,0-3.54.01-5.31.02-1.53-.07-3.06-.22-4.59-.21-3.37.03-6.74.14-10.11.21-.34,0-.68,0-1.01,0-.14,0-.29,0-.43,0-.33,0-.67,0-1,0-.14,0-.28,0-.43-.01-.34,0-.68,0-1.02,0-3.22-.07-6.44-.14-9.66-.21-.12-.12-.24-.24-.36-.35-.07-.5-.15-1-.22-1.5,0-.43,0-.86,0-1.28.07-.77.19-1.53.19-2.3.01-7.62.02-15.24,0-22.86,0-2.97-.07-5.95-.11-8.92.7-1.23,1.85-1.06,2.98-.97,3.1.02,6.21.03,9.31.05.23,0,.47,0,.7,0,.24,0,.49,0,.73,0,.23,0,.46,0,.7,0,.24,0,.49,0,.73,0,.23,0,.46,0,.7,0,.24,0,.49,0,.73,0,.35,0,.7,0,1.05,0,.13,0,.26,0,.39,0,.35,0,.7,0,1.04,0,.13,0,.26,0,.39,0,.35,0,.7,0,1.04,0,.13,0,.26,0,.39,0,.23,0,.47,0,.7,0,3.58,0,7.15,0,10.73,0,.23,0,.47,0,.7,0,.24,0,.49,0,.73,0,.23,0,.46,0,.7,0,.24,0,.49,0,.73,0,.23,0,.46,0,.7,0,.24,0,.49,0,.73,0,.35,0,.7,0,1.05,0,.13,0,.26,0,.39,0,.23,0,.46,0,.69,0,.24,0,.49,0,.73,0,.23,0,.47,0,.7,0,.24,0,.49,0,.73,0,.23,0,.47,0,.7,0,.24,0,.49,0,.73,0,.23,0,.47,0,.7,0,.24,0,.49,0,.73,0,.23,0,.47,0,.7,0,.24,0,.49,0,.73,0,.23,0,.47,0,.7,0,.24,0,.49,0,.73,0,.23,0,.47,0,.7,0,.24,0,.49,0,.73,0,.23,0,.46,0,.7,0,.24,0,.49,0,.73,0,.23,0,.47,0,.7,0,.72,0,1.44,0,2.15,0,.24,0,.47,0,.71,0,.7.09,1.39.24,2.09.24,4.45.02,8.89.02,13.34,0,.82,0,1.63-.16,2.45-.25.23,0,.47,0,.7,0,.24,0,.49,0,.73,0,.23,0,.47,0,.7,0,1.67,0,3.34,0,5.01,0,.23,0,.47,0,.7,0,.24,0,.49,0,.73,0,.23,0,.47,0,.7,0,.24,0,.49,0,.73,0,.23,0,.46,0,.7,0,.24,0,.49,0,.73,0,.23,0,.47,0,.7,0,.72,0,1.43,0,2.15,0,.23,0,.47,0,.7,0,.24,0,.49,0,.73,0,.23,0,.46,0,.7,0,.24,0,.49,0,.73,0,.23,0,.46,0,.7,0,.24,0,.49,0,.73,0,.23,0,.46,0,.7,0,.24,0,.49,0,.73,0,.35,0,.7,0,1.05,0,.13,0,.26,0,.39,0,.23,0,.46,0,.69,0,.24,0,.49,0,.73,0,.24,0,.47,0,.71,0,2.62,0,5.25-.01,7.87-.02.23,0,.47,0,.7,0,.24,0,.49,0,.73,0,.23,0,.46,0,.7,0,.24,0,.49,0,.73,0,.23,0,.47,0,.7,0,.24,0,.49,0,.73,0,.23,0,.47,0,.7,0,.24,0,.49,0,.73,0,.23,0,.47,0,.7,0,.24,0,.49,0,.73,0,.23,0,.47,0,.7,0,.24,0,.49,0,.73,0,.23,0,.47,0,.7,0,.24,0,.49,0,.73,0,.23,0,.47,0,.7,0,.24,0,.49,0,.73,0,.23,0,.47,0,.7,0,.72,0,1.44,0,2.15,0,.23,0,.47,0,.7,0,.24,0,.49,0,.73,0,.23,0,.46,0,.7,0,.24,0,.49,0,.73,0,.23,0,.46,0,.7,0,.24,0,.49,0,.73,0,.23,0,.47,0,.7,0,7.39,0,14.78,0,22.17,0,.24,0,.47,0,.71,0,3.58,0,7.15,0,10.73,0,.24,0,.47,0,.71,0,.72,0,1.43,0,2.15,0,.23,0,.47,0,.7,0,.24,0,.49,0,.73,0,.23,0,.46,0,.7,0,.24,0,.49,0,.73,0,.35,0,.7,0,1.05,0,.13,0,.26,0,.39,0,.35,0,.7,0,1.04,0,.13,0,.26,0,.39,0,.23,0,.47,0,.7,0,.52.08,1.04.24,1.56.24,6.35.02,12.7.02,19.05,0,.52,0,1.04-.16,1.56-.24.24,0,.47,0,.71,0,.72,0,1.43,0,2.15,0,.23,0,.47,0,.7,0,.24,0,.49,0,.73,0,.35,0,.71,0,1.06,0,.6,0,1.2,0,1.79,0,.35,0,.7,0,1.06,0,.13,0,.26,0,.39,0,.35,0,.7,0,1.06,0,1.55,0,3.1,0,4.65,0,.36,0,.71,0,1.07,0,1.55,0,3.1,0,4.65,0,.24,0,.47,0,.71,0,.72,0,1.43,0,2.15,0,.24,0,.47,0,.71,0,1.19,0,2.39,0,3.58-.01.23,0,.47,0,.7,0,.25,0,.49,0,.73,0,.23,0,.46,0,.69,0,.24,0,.49,0,.73,0,.23,0,.46,0,.7,0,.24,0,.49,0,.73,0,.35,0,.7,0,1.05,0,.13,0,.26,0,.39,0,.35,0,.7,0,1.06,0,1.55,0,3.1,0,4.65,0,.24,0,.47,0,.71,0,.72,0,1.43,0,2.15,0,.23,0,.47,0,.7,0,.24,0,.49,0,.73,0,.23,0,.47,0,.7,0,.24,0,.49,0,.73,0,.23,0,.47,0,.7,0,.24,0,.49,0,.73,0,.23,0,.47,0,.7,0,.24,0,.49,0,.73,0,.23,0,.46,0,.7,0,.24,0,.49,0,.73,0,.23,0,.46,0,.7,0,.24,0,.49,0,.73,0,.23,0,.47,0,.7,0,2.41.08,4.83.23,7.24.24,2.12,0,4.23-.15,6.35-.24.24,0,.47,0,.71,0,1.19,0,2.39,0,3.58,0,.24,0,.47,0,.71,0,.7.09,1.4.24,2.1.25,4.4.04,8.81.04,13.22.05,0,0,.02.02.02.02-.01.11,0,.22,0,.32.11.12.23.24.34.35,0,.35,0,.7,0,1.05-.1.46-.29.91-.29,1.37,0,11.47.03,22.94.05,34.42,0,0-.01.02-.01.02-.13.1-.27.21-.4.31Zm-105.45-32.24c-.13.43-.39.87-.39,1.3-.01,7.66-.02,15.33.04,22.99,0,.69.48,1.38.74,2.07l.05.08.09-.03c.31-.01.62-.02.93-.04l.13.05s.13-.05.13-.05c.27,0,.53-.02.8-.02,3.54.02,7.09.03,10.63.05.38-.04.76-.07,1.14-.11.2-.04.4-.09.59-.13.1-.53.47-1.26.25-1.54-.28-.37-1.03-.55-1.57-.54-2.41.06-4.83.3-7.24.26-.57,0-1.62-.86-1.62-1.33-.03-3.22.16-6.45.29-9.83,2.51.19,4.74.38,6.98.51.62.04,1.36.05,1.84-.25.25-.16.28-1.33.04-1.5-.55-.38-1.34-.57-2.03-.58-1.77-.02-3.55.07-5.32.17-1.03.06-1.56-.29-1.59-1.38-.07-2.3-.25-4.6-.23-6.9,0-.35.84-.99,1.29-.99,2.42.01,4.84.13,7.25.32,1.37.11,2.25-.62,1.7-1.83-.24-.52-1.37-.63-2.09-.93-.12,0-.23,0-.35,0-3.34,0-6.69,0-10.03,0-.11-.06-.22-.06-.33,0-.62,0-1.24.02-1.87.03l-.27.15Zm83.31,25.96c.11.18.22.35.34.53.95,0,1.91-.05,2.86.03,1.56.14,2.14-.52,2.1-2.06-.07-2.56-.16-5.13.03-7.68.11-1.49.49-3.09,1.22-4.36,2.09-3.6,4.43-7.05,6.66-10.57.3-.47.53-.98.81-1.52-3.88-.93-4.66-.59-6.25,2.56-.67,1.33-1.32,2.66-2.03,3.97-.79,1.48-1.63,2.93-2.56,4.58-1.73-3.01-3.28-5.68-4.82-8.36-1.86-3.25-3.6-3.9-7.38-2.66,2.58,4.23,5.18,8.41,7.68,12.66.63,1.08.91,2.36,1.35,3.56.04.18.09.36.13.54-.05,2.93-.1,5.85-.14,8.78Zm-122.26.39l.15.03.14-.07c.38,0,.76,0,1.14,0,3.19-.03,6.38-.06,9.57-.08,5.78.03,10.13-4.24,11.22-9.31.48-2.21.7-4.56.54-6.8-.13-1.92-.64-3.98-1.58-5.65-2.12-3.77-5.93-4.56-9.88-4.82l-.08-.09s-.1.07-.1.07c-1.48-.01-2.95-.03-4.43-.04l-.58.03c-.29,0-.59.02-.88.03-.29,0-.58,0-.86,0-.42-.01-.84-.02-1.27-.03-.18,0-.36-.01-.54-.02-.3-.02-.6-.03-.89-.05l-.06-.07-.07.06c-1.3-.02-2.6-.03-3.89-.05l-.05.04c-.12.5-.34,1-.34,1.51-.04,7.87-.06,15.74-.03,23.62,0,.56.43,1.13.66,1.69l.04.08s.08-.03.08-.03c.66-.02,1.33-.04,1.99-.05Zm100.25.16c-1.02-9.14-2.01-17.97-3-26.77-1.65,0-2.89-.42-3.68,1.11-2.67,5.18-5.44,10.3-8.18,15.44-.34.63-.78,1.2-1.46,2.25-1.32-2.7-2.35-4.95-3.5-7.14-1.89-3.57-3.8-7.14-5.84-10.62-.35-.59-1.45-1-2.19-.98-.44.01-1.14.98-1.24,1.6-.77,5-1.44,10.01-2.13,15.02-.39,2.81-.78,5.62-1.14,8.43-.15,1.18.32,1.82,1.62,1.66,1.14-.14,2.57.46,2.7-1.59.28-4.47.68-8.93,1.06-13.39.03-.39.31-.76.63-1.52.68,1.11,1.19,1.82,1.58,2.6,1.97,3.87,3.87,7.77,5.87,11.62.38.73,1.34,1.9,1.65,1.79.89-.32,1.85-1.04,2.32-1.87,1.11-1.94,1.92-4.06,2.92-6.07,1.4-2.82,2.86-5.61,4.29-8.41l.45.15c.46,5.08.88,10.17,1.44,15.24.06.52.87,1.29,1.41,1.37,1.33.2,2.7.07,4.42.07Zm-135.09-10.72c2.18,0,4.26.06,6.34-.02,1.29-.05,1.92.48,2.34,1.68.89,2.56,1.85,5.11,2.92,7.6.26.6,1,1.31,1.59,1.4,1.43.2,2.92.07,4.58.07-.2-.83-.25-1.42-.48-1.95-.7-1.64-1.49-3.24-2.2-4.88-2.73-6.25-5.43-12.51-8.21-18.74-.29-.66-1.03-1.52-1.61-1.55-.72-.04-1.55.59-2.2,1.1-.39.3-.57.89-.79,1.38-3.51,7.7-7.01,15.41-10.48,23.13-.16.35-.15,1,.07,1.24.81.9,4.23.15,4.66-.99,1.16-3.1,2.28-6.2,3.48-9.46Zm-82.96,10.71c1.04,0,1.85.17,2.55-.04.77-.23,1.79-.64,2.09-1.27.81-1.69,1.36-3.52,1.9-5.32,1.14-3.78,1.48-4.07,5.32-4.07,1.07,0,2.16-.1,3.21.04.52.07,1.2.49,1.41.94.93,1.99,1.76,4.03,2.56,6.08,1.77,4.56.81,3.5,5.35,3.65.06,0,.12,0,.18,0,1.25,0,1.63-.57,1.06-1.7-.61-1.22-1.32-2.39-1.86-3.64-2.9-6.71-5.71-13.44-8.68-20.12-.34-.76-1.44-1.67-2.16-1.65-.71.02-1.66,1.01-2.03,1.8-3.53,7.68-6.96,15.4-10.4,23.13-.27.6-.32,1.3-.53,2.17Zm52.41.72c1.31,0,2.32.2,3.2-.04,2.09-.57,4.16-1.24,6.13-2.11.5-.22.6-1.35.88-2.06-.68-.03-1.44-.25-2.04-.05-1.17.4-2.23,1.12-3.38,1.59-4.37,1.79-9.52-.21-11.79-4.39-1.91-3.53-2.03-7.19-1.22-10.98,1.17-5.52,7.79-9.98,13.13-6.64,1,.62,2.03,1.18,3.02,1.81,1.14.72,1.9.18,2.21-.84.24-.81,1.4-2.06-.49-2.5-1.59-.37-3.19-.9-4.8-.93-3.1-.06-6.27-.17-9.29.39-4.69.86-9.16,5.69-9.58,12.54-.23,3.72.4,7.07,3.19,9.79,3.12,3.03,6.71,4.82,10.82,4.42Z"/>
    <path class="cls-1" d="m118.22,125.71c.18-1.44.18-2.93.6-4.3.48-1.55,1.55-1.82,3.12-1.14.68.29,1.36.57,2.35.98,0-1.09.04-1.85,0-2.6-.11-1.57.8-2.37,2.12-2.88.27-.11.59-.13.85-.25q2.21-1.05,3.63,0c1.26-.86,2.39-1.63,3.66-2.5-.27-1.16-1.27-2.37-.03-3.84,1.18-1.39,3.18-1.82,4.63-.67.4.31,1.07.27,1.61.4,1.85.48,3.72,1.05,5.01-1.09,1.29-.36,2.58-.72,3.87-1.08.43,0,.86.02,1.29.03-.12-.47-.08-1.12-.38-1.39-1.12-.99-1.37-2.09-.93-3.48.15-.48.05-1.05.07-1.58.25.01.49.03.74.04.24.36.48.73.73,1.09-.21.93,1.64,4.88,2.47,5.25.1.05.23.03.35.04.36-.25,1.03-.52,1.02-.75-.05-1.19-.25-2.4-1.68-2.81-.14-.46-.27-.93-.41-1.39,1.16-.24,2.56,0,2.94-1.7.05-.23.69-.33,1.05-.5.23.13.46.26.69.4.34,1.52,1.35.81,2.19.67.46.01.91.02,1.37.03.82.37,1.64.75,2.45,1.12.5.7,1,1.41,1.5,2.11-1.62,1.26-.26,3.21-1.07,4.66.1.59.21,1.18.31,1.77.02.59.04,1.17.06,1.76-.14,1.45-.18,2.87,1.02,3.97.48.23.95.46,1.43.69-.03.37-.22.88-.05,1.09.51.65,1.13,1.23,1.8,1.71.12.09,1.03-.57.99-.66-.23-.62-.56-1.24-.99-1.75-.36-.44-.88-.74-1.33-1.1-.16-.8-.33-1.6-.49-2.4l-.36-.39c-.08-.03-.16-.07-.24-.11-.02-.44-.03-.88-.05-1.32.14-.37.27-.74.41-1.11-.15-.6-.31-1.19-.46-1.79.74-1.48.82-2.92-.22-4.32-.12-.16-.07-.45-.09-.68.19-.42.62-.91.53-1.26-.33-1.19-.08-1.99.97-2.71,1.09-.75.91-1.66-.06-2.46-.12-.84-.25-1.68-.37-2.52.01-.31.03-.62.04-.93,0,0,.1-.12.1-.12.88-.63.73-2.4,2.4-2.16.7,1.15,1.4,1.23,2.1,0,1.59.12,2.39,1.2,3.15,2.43.36.58,1,1,1.51,1.49h0c.12.12.23.24.35.36.59.24,1.19.48,1.78.72,1.04-.52,1.46-1.17.52-2.19-.16-.17-.25-.56-.17-.76.66-1.51-.2-1.91-1.44-2.06-.14-.11-.28-.22-.43-.34.02-.23.04-.46.06-.69.06-1.77.7-2.52,2.5-1.52.36.2.96-.02,1.45-.04,1.07.15,2.15.29,3.22.44.22-.14.44-.28.66-.43v-.02c.16-.04.34-.05.49-.12.57-.28,1.13-.58,1.69-.88.18.76.39,1.51.52,2.27.05.33-.07.69-.11,1.03-.13.1-.27.2-.4.3-2.42-.33-4.15.55-4.99,2.92-1.31,1.63-1.03,2.63,1.06,3.82.32.24.64.66.97.67,1.69.05,1.63.97,1.18,2.15-.25.08-.5.17-.75.25-.14.05-.27.1-.41.15-.1.1-.2.19-.3.29-.13.15-.26.31-.39.46-.26.43-.52.85-.8,1.31-.63-.21-1.16-.39-1.69-.57-.03-.06-.05-.12-.04-.19.14-.87.38-1.74.39-2.61,0-.45-.29-1.12-.64-1.28-.33-.15-.9.26-1.37.38-.72.18-1.44.31-2.16.46-.57-.32-1.11-.82-1.71-.93-.84-.16-1.73-.07-2.59,0-.46.04-.89.28-1.34.44.42.28.82.59,1.26.82.7.37,1.48.6,2.11,1.06.43.31.65.9.96,1.37.43-.56.85-1.11,1.28-1.67,1.72-.28,2.61,1.01,3.67,1.96-1,.3-2.49.3-2.9.96-.87,1.42-1.98,1.49-3.29,1.45-.13-.27-.27-.54-.4-.81.12-1.05-.36-1.48-1.41-1.43-1.17.07-1.49.71-1.34,1.75,0,.37,0,.74,0,1.12-.4.46-.81.93-1.21,1.39-.33.63-.76,1.23-.98,1.89-.25.77-.31,1.6-.45,2.4,0,.42,0,.83,0,1.25,1-.14,2.02-.21,2.98-.47.28-.07.41-.7.61-1.07.25-.13.49-.26.74-.39.24,0,.49,0,.73,0h.17s.17,0,.17,0c1.79.17,3.57.38,5.36.46.3.01.78-.5.9-.86.27-.82.37-1.7.57-2.73.04.05-.09-.08-.18-.23-.23-.39-.45-.8-.67-1.2.45.09.96.09,1.35.3,1.24.67,1.34,1.84,1.25,3.09-.07,1.02,0,1.98,1.43,1.89,0,.47,0,.95,0,1.42-.55.14-1.09.28-2,.52.37.63.7,1.17,1.02,1.71.45-.38.9-.77,1.35-1.15,2.16,1.91,4.58.22,6.87.44.41.04.9-.75,1.35-1.16.34,0,.67,0,1.01,0,.03.22.07.44.1.66-.97.85-1.93,1.71-2.9,2.56-.24,0-.48,0-.71,0l-1.07-.35c-.24,0-.48,0-.71,0-.6.12-1.19.24-1.79.36-.36,0-.72,0-1.07,0-.42-.23-.84-.46-1.27-.68l-.25.47c.5.31,1.01.62,1.51.93.61,1.64,1.57,2.84,3.51,2.86.03.12.05.23.08.35.12.12.24.24.35.36h0c.71.23,1.42.47,2.13.71,0,0,.06.01.06.01-.32.73-.68,1.45-.93,2.21-.15.43-.12.93-.17,1.39.48-.07,1.02-.01,1.43-.22.77-.4,1.54-.88,2.18-1.46.64-.58,1.12-1.34,1.67-2.02.08-.14.15-.29.23-.43.29-.19.59-.38.88-.57.73.19,1.47.35,2.2.56.67.19,1.32.43,1.98.65.1-.48.45-1.18.26-1.38-.43-.46-1.12-.67-1.71-.97-.42-.21-.86-.38-1.29-.56-.03-1.04.09-1.95,1.48-1.84,1.11.97,2.22,1.94,3.33,2.91-.02.57-.04,1.15-.07,1.72.09.12.18.24.28.36h.02c0,.25,0,.49,0,.73-.36.71-.72,1.42-1.08,2.13-.73.38-1.46.76-2.19,1.14h0c-.37-.24-.74-.48-1.11-.71-.22-.03-.45-.06-.67-.09-.1,0-.2,0-.3-.01-.26,0-.52,0-.78,0-2.06-.5-3.2.17-4.97,2.93-1.1-.42-2-.38-2.12,1.11-1.17,1.21-2.33,2.42-3.46,3.59-.56-.11-1.22-.24-1.87-.37-.86-.25-1.73-.49-2.59-.74-.1-.03-.19-.06-.28-.1-.26-.91-.44-1.85-.82-2.71-.32-.72-.89-1.01-1.42-.08l-1.81.44c-2.37.07-3.03.98-2.31,3.17.11.33.17.67.25,1.01,0,2.27-.01,4.55-.02,6.82-.11,0-.23.01-.34.01-.87.05-1.73.11-2.84.17.23-.79.49-1.38.57-1.99.13-.97.46-2.09-.96-2.48-.72-.35-1.43-.71-2.15-1.06-.23-.12-.47-.23-.7-.35-.12-.16-.23-.32-.35-.48-.36-1.15-.72-2.3-1.07-3.46.02-.1.03-.21.04-.31l.33-.43c0-.23.01-.46.02-.69.02-.04.07-.09.06-.12-.02-.08-.07-.16-.11-.23-.33-.31-.66-.62-1.37-1.29v3.05c-2.36,1.47-2.61,1.41-2.89-.63.11-.05.22-.1.33-.13.1-.23.21-.47.31-.7-.45-.61-.9-1.21-1.35-1.82-.65-1.75-1.26-3.51-1.96-5.23-.25-.62-.71-1.15-1.08-1.72-.61.46-1.23.92-1.91,1.44.45.48.71.71.91.99.25.36.45.76.66,1.15-.45.2-.89.41-1.36.57-.21.07-.47.04-.7.05-.58.46-1.16.93-1.73,1.39-.37.36-.75.72-1.12,1.07-1.07-.14-2.31,1.48-3.23-.3.6-.7,1.18-1.4.05-2.14l-.37-.42-.03.05c.02-.61.03-1.23.05-1.84.27-1.97-.3-2.37-2.49-1.77-.33-.44-.67-.88-.86-1.13.97-.87,1.76-1.57,2.55-2.28-.11-.15-.21-.31-.32-.46-1.55.33-3.1.65-4.65.98-.22-.52-.44-1.05-.65-1.57-.5.4-1.01.81-1.51,1.21-.78.16-1.61.22-2.33.52-.56.24-1.15.7-1.43,1.22-.21.39-.05,1.06.12,1.54.23.65.63,1.25.96,1.87.34-.6.65-1.23,1.04-1.81.53-.78,1.11-1.52,1.67-2.28l1.46-.05c.13.62.26,1.25.38,1.87.35.82.7,1.63,1.05,2.45.68,1.05,1.37,2.09,2.11,3.23-.86.15-1.48.26-2.11.38-.41-.45-.96-.83-1.19-1.36-.8-1.78-1.19-1.87-2.74-.43-.47.13-.94.25-1.41.38-.25.23-.51.46-.76.69-.11.24-.22.48-.33.73,0,.11,0,.21-.01.32-.8.01-1.6.03-2.4.04-1.61-.06-2.05-1.36-2.65-2.5.03-.72.06-1.44.09-2.16.44-.89,1.07-1.74,1.26-2.67.12-.55-.44-1.25-.7-1.88-.43.48-.97.9-1.26,1.46-.29.55-.32,1.23-.47,1.85-.23.4-.47.8-.7,1.2-.92,1.81-1.83,3.62-2.75,5.44,0,0-.05.03-.05.03-.13.09-.25.18-.38.27-1.46.72-2.72.59-3.45-.67-1.38,0-2.54,0-3.7,0-.85-1.46-1.17.14-1.74.3-1.67.58-2.04-1.01-2.91-1.76Zm41.46-16.45c-.3-.91-.66-1.52-1.43-.32-.41.09-.85.1-1.22.27-.42.2-.78.55-1.16.83.43.23.86.45,1.29.68.59.49,1.19.98,1.78,1.47.6,2.51,3.09,2.23,4.56,3.47.12-.14.24-.28.36-.42-.67-.69-1.34-1.38-2.02-2.07-.12-.63-.3-1.26-.35-1.9-.09-1.15-.57-1.89-1.79-1.99l-.02-.02Zm1.12-4.66c-.21-.11-.41-.28-.62-.31-1.02-.11-2.05-.17-3.07-.25.63.9,1.26,1.79,1.89,2.69l2.64-.56c-.28-.53-.56-1.05-.84-1.58Zm-7.62,10.09c-1.61,2.29-1.23,4.21.87,4.78.3.08.7.04.98-.11.15-.08.25-.55.16-.74-.61-1.28-1.28-2.53-2-3.92Zm-23.97,7.32c.69-.78,1.47-1.33,1.39-1.63-.15-.54-.83-.92-1.29-1.37-.45.47-1.05.87-1.27,1.42-.1.25.57.8,1.18,1.58Zm24.1-12.38c-.86-.28-1.22-.53-1.41-.43-.88.44-1.75.91-2.52,1.51-.16.12.13.82.21,1.26,1.09-.69,2.18-1.37,3.71-2.33Zm24.44,5.82c-.88-.42-1.3-.78-1.71-.76-.33.02-.64.48-.96.75.34.31.65.84,1.02.88.37.04.79-.39,1.65-.87Z"/>
    <path class="cls-1" d="m127.5,150.83c-27.76,0-55.53,0-83.29,0-.22-.06-.44-.12-.67-.18-.12-1.26-.23-2.52-.35-3.79.12-.13.23-.27.35-.4,0,0-.02.02-.02.02.82-.07,1.63-.14,2.44-.21.26.02.51.04.77.05.96.02,1.91.05,2.87.07.23,0,.46,0,.69,0,1.07.03,2.14.08,3.2.09,12.78,0,25.57,0,38.35-.01,8.32,0,16.64-.05,24.97-.07.23,0,.46,0,.69,0,.25,0,.5,0,.75,0,.23,0,.45,0,.68,0,.25,0,.5,0,.75,0,.23,0,.46,0,.69,0,3.68,0,7.36-.01,11.04-.02.86.01,1.71.02,2.57.04,1.54,0,3.08,0,4.62,0,.38.21.78.61,1.13.58.96-.09,1.91-.36,2.86-.57,1.18-.12,2.35-.23,3.53-.35.87.08,1.74.17,2.61.25,0,0-.04,0-.04,0l1,.16c1.18-.14,2.36-.28,3.54-.42.26,0,.53,0,.79,0l1.76.31c.22,0,.43.02.65.03.14-.04.27-.09.41-.13.01-.06.02-.13.02-.19.14,0,.28,0,.42-.01.12-.23.24-.45.36-.68.21-.24.42-.48.63-.72.37.57.74,1.15,1.11,1.72,3.35.02,6.71.11,10.06,0,.84-.03,1.65-.67,2.48-1.04.46-.31.94-.9,1.38-.88,2.55.12,2.55.17,3.19-2.35,0-.59,0-1.17,0-1.76,1.1-.36,2.2-.72,3.3-1.08.07.85.15,1.7.22,2.55-.08.36-.16.72-.24,1.08,0,.45,0,.9,0,1.35.1.24.2.48.29.72.49.24.97.49,1.46.73l1.1-.38,1.02-.05c.46.77.9.8,1.47.06.41-.53.96-.95,1.44-1.42,1.42,1.25,2.52,3.23,4.94,2.13.73,0,1.45,0,2.18,0,2,0,4-.01,6-.02,1.58.13,3.16.26,4.75.39.35,0,.71-.01,1.06-.02,2.49,0,4.97,0,7.46.01.63,0,1.25-.01,1.88-.02,1.64-.03,3.28-.06,4.92-.09.82-.19,1.63-.39,2.45-.58,0-.12,0-.24.01-.36.01-.24.03-.47.04-.71.1,0,.2-.02.3-.05.35.17.93.25,1.02.52.52,1.44,1.51,1.35,2.67.99.32-.1.69-.07,1.04-.1.61.13,1.22.26,1.83.4,1.89,0,3.79,0,5.68-.01.25,0,.49,0,.74,0,.23,0,.46,0,.69-.01.77.03,1.54.08,2.31.08,11.41,0,22.83.01,34.24,0,9.04-.01,18.07-.05,27.11-.07,4.45,0,8.91-.03,13.36.06.67.01,1.85.56,1.9.97.14,1.05-.23,2.16-.39,3.25-.09-.02-.16,0-.23.06-.47.03-.94.06-1.41.09-16.29-.03-32.57-.07-48.86-.07-8.62,0-17.24.06-25.85.09-.13,0-.26,0-.4,0-10,0-20-.01-30-.02-.37,0-.73,0-1.1,0-1.06,0-2.12.01-3.19.02-.13,0-.26,0-.4,0-1.66,0-3.31,0-4.97,0-.25,0-.49,0-.74,0-9.76,0-19.52,0-29.28,0-.13,0-.26,0-.39,0-7.14.01-14.28.02-21.41.04-.13,0-.26,0-.39,0-6.07-.01-12.13-.02-18.2-.04-.13,0-.26,0-.4,0Z"/>
    <path class="cls-1" d="m226.94,115.36c1.11-.16,2.21-.32,3.73-.54-.28,1.07-.44,1.69-.6,2.31-.09.36-.18.73-.27,1.09-.11,1.17-.23,2.34-.34,3.52-.25.96-.5,1.91-.75,2.87-.47.66-.93,1.32-1.4,1.97-.17.28-.34.56-.51.83-.09.02-.17.05-.25.08-.74.35-1.47.7-2.21,1.05-.59.2-1.19.39-1.77.61-.69.26-1.36.55-2.04.83-.27-.11-.54-.23-.81-.34-.94-.01-1.88-.02-2.82-.03-.1-.12-.19-.24-.29-.37-.14-.11-.28-.22-.42-.33l-1.5.69c-.72.26-1.44.52-2.16.78-.31-.59-.61-1.18-.94-1.81-.6-.04-1.22-.09-1.85-.14-.01-2.23-.02-4.47-.03-6.7,0,0,0,0,0,0,.5,0,.99-.01,1.49-.02,1.89,1.22,3.77,2.43,5.66,3.65.39,1.02,1.15,1.76,2.17,1.21,1.16-.62-.12-1.38-.15-2.07-.03-.77.34-1.61.72-2.3.27-.48.93-.73,1.3-1.18.18-.22.23-.74.08-.97-.13-.2-.69-.35-.91-.24-1.19.6-2.34,1.28-3.51,1.93-.98-.23-1.95-.52-2.95-.66-1.12-.16-1.71-.73-1.8-1.85.63-.51,1.32-.96,1.89-1.54.65-.67,1.2-1.44,2.06-2.5-2.71.05-4.08,1.08-4.64,2.98-.85.2-1.71.41-2.08.5-.61-1.13-1.03-1.89-1.45-2.66-.97-.71-1.93-1.43-2.9-2.14.35-.59.7-1.18,1.05-1.77l.06-.05c.1-.1.2-.2.29-.29.13-.36.26-.73.39-1.09,1.47-.69,1.67.21,1.88,1.36.07.4.73.69,1.13,1.03.23-.35.7-.73.66-1.05-.22-1.79-2.45-2.69-4.01-1.67-1.25,0-2.68-.29-2.55,1.74-.18.83-.36,1.66-.54,2.49-.41.61-.82,1.23-1.23,1.84l-.93-.41c-.43-1.28-1.46-1.46-2.62-1.4-.48-.24-.95-.48-1.43-.71-.26-.19-.51-.38-.77-.57.21-.42.33-.93.65-1.23,1.08-1,.88-1.97.04-2.94-.42-.49-.92-.9-1.38-1.35,0-.59.02-1.18.03-1.77.59-.1,1.19-.19,1.78-.29.36-.02.71-.03,1.07-.05.72.43,1.45.86,2.53,1.51.13-.98.16-1.76.37-2.49.14-.49.51-.92.78-1.37.21.42.42.85.63,1.27,0,.47,0,.95,0,1.42.56.3,1.2.9,1.67.8.43-.09.62-1.04,1.04-1.48.44-.45,1.03-.74,1.56-1.11.39,1.45,1.51,1.75,2.79,1.79.37,1.32.75,2.64,1.25,4.41,1.97-1.79,3.69-3.1,6.02-1.95-.19.36-.45.7-.56,1.09-.29,1.01-.51,2.04-.77,3.07.88.21,1.76.43,2.64.62.16.04.35-.03.53-.06,2.73-.38,3.27-.05,4.23,2.6-.62-.21-1.24-.55-1.88-.59-.55-.03-1.14.22-1.65.47-.08.04.04.89.29,1.12,1.82,1.63,4.34,1.72,6.45.32.24-.59.48-1.19.72-1.78Z"/>
    <path class="cls-1" d="m206.88,104.26c-.53.36-1.12.66-1.56,1.11-.43.44-.62,1.38-1.04,1.48-.48.1-1.11-.5-1.68-.8.66-.08,1.32-.15,1.98-.23l.09-.71c-.69-.16-1.38-.32-2.07-.48-.21-.42-.42-.85-.63-1.27-.27.45-.65.88-.78,1.37-.2.73-.23,1.5-.37,2.49-1.08-.64-1.8-1.08-2.53-1.51.03-.37.06-.73.08-1.1.5-.08.99-.16,1.49-.23.01-.22.02-.44.03-.66-.7-.16-1.41-.32-2.11-.49-.59.26-1.18.53-1.77.79.4.58.8,1.16,1.2,1.74-.59.1-1.19.19-1.78.29-.4-1.22-1.33-1.51-2.48-1.43,0-.23,0-.47,0-.7.02-.04.06-.08.05-.12-.02-.08-.06-.15-.09-.23,0,0-.02-.05-.02-.05-.08-.12-.15-.25-.23-.37-.02-.23-.03-.46-.05-.7.86-.93,1.72-1.86,2.59-2.79-.08-.13-.16-.26-.24-.39-.51.25-1.1.4-1.51.76-.83.74-1.57,1.59-2.35,2.4-.32.37-.65.73-.97,1.1.55.38,1.11.76,1.66,1.14.1.81.2,1.62.33,2.68.83.12,2.05.29,3.27.47.46.45.96.87,1.38,1.35.83.97,1.04,1.94-.04,2.94-.32.3-.44.81-.65,1.23-.84.1-1.78-1.03-2.52.21-.34,0-.67,0-1.01,0-.98-1.02-1.94-2.07-2.96-3.05-.25-.24-.93-.43-1.06-.3-.26.26-.33.76-.37,1.17-.02.26.17.54.28.86-1.54,1.09-1.65-.18-1.97-1.08,0-.88-.01-1.76-.05-2.63,0-.01-.6-.01-.6,0-.03.82-.04,1.64-.04,2.47-.6.26-1.2.52-1.81.78-1.43.09-1.5-.87-1.43-1.89.09-1.24-.01-2.42-1.25-3.09-.39-.21-.89-.21-1.35-.3.22.4.44.8.67,1.2.09.15.22.27.18.23-.2,1.03-.3,1.91-.57,2.73-.12.36-.6.88-.9.86-1.79-.08-3.58-.29-5.36-.46.68-.63,1.37-1.26,2.05-1.88.12-.11.23-.22.35-.33.4.36.81.71,1.68,1.48.09-1.68.15-2.79.2-3.9.94-.98,2.67-1.34,2.46-3.2.53.18,1.06.36,1.69.57.28-.46.54-.88.8-1.31.14.68.17,1.41.45,2.02.45.99,1.58,1.16,2.02.38.22-.4.34-.86.5-1.29.05-.15.1-.31.15-.46.04-.21.08-.43.12-.64.88-.69,1.75-1.39,2.63-2.08-.12-.22-.25-.45-.37-.67-.55.23-1.11.45-1.66.69-.67.29-1.33.6-1.99.91.45-1.18.51-2.09-1.18-2.15-.33-.01-.65-.44-.97-.67.48-1.5.9-2.99-1.06-3.82.84-2.37,2.56-3.25,4.99-2.92-.14.47-.28.95-.41,1.42-.68.17-1.35.35-2.03.52.06.31.12.63.18.94.98-.17,1.97-.33,2.95-.5,2.12-.63,3.37-1.95,3.33-4.27,0-.21.18-.42.28-.64.5.22,1.01.44,1.51.66.17.39.33.78.5,1.16.07.21.14.41.21.62-.26.85-.53,1.69-.79,2.54-.95,1.13-2.84,1.57-2.41,3.77.69-.77,1.38-1.53,2.07-2.3.6-.14,1.41-.08,1.74-.45.76-.84,1.28-1.89,1.89-2.85.32-.11.64-.22.95-.33.26-.22.51-.43.77-.65.85-1.52,1.86-1.61,3.26-.58,1.58,1.16.21,2.04-.07,3.04-.22.27-.47.52-.66.8-.53.79-.62,1.64.34,2.04.36.15,1.03-.41,1.55-.67.44-.22.87-.48,1.3-.72.35.25.71.5,1.06.74.14.21.28.42.42.63.07.37.13.74.2,1.11.04.62-1.64,1-.26,1.82.14.09.28.18.42.28.11.37.22.75.32,1.12-.67.5-1.34,1.01-2.08,1.57,1.85,1.26,2.57,1.01,3.12-.83.48-.12.95-.24,1.43-.35.36.13.71.27,1.07.4-.36.45-.7.91-1.07,1.34-.34.39-.72.74-1.08,1.1Zm-14.19,8.26c.69-.6,1.09-.94,1.48-1.28-.63-.42-1.23-.91-1.92-1.21-.19-.08-.64.43-.96.67.41.53.82,1.07,1.4,1.82Z"/>
    <path class="cls-1" d="m112.21,178.6c0-.59.01-1.18.02-1.77.03-.04.09-.08.09-.11-.01-.09-.05-.18-.08-.26,0-1.54-.01-3.09-.02-4.63,0-.6-.01-1.2-.02-1.8-.19-1.8-.38-3.6-.59-5.57h5.9c0,2.62.08,5.15-.03,7.67-.07,1.69.62,2.21,2.17,1.9.13,0,.25,0,.38,0,.35,0,.7,0,1.06,0,1.43,0,2.87,0,4.3,0,.23,0,.47,0,.7,0,.13,0,.25,0,.38,0,.47,0,.94,0,1.41,0,.11-.03.23-.06.34-.08v-9.54h5.6c0,6.28,0,12.54,0,18.8.03.39.06.77.08,1.16-.05,1.4.33,3.09-.32,4.1-.38.59-2.42.13-3.71.13-.47,0-.93,0-1.6,0,0-2.31,0-4.53,0-6.75.06-.51.11-1.01.17-1.52,0-.91.02-1.83.02-2.74-.02-.15-.05-.3-.07-.44,0-.08-.05-.12-.12-.15-.15-.04-.3-.08-.45-.12-.44.03-.87.06-1.31.1-2.65-.06-5.31-.16-7.96-.13-.35,0-1,.69-1,1.06-.02,2.29.11,4.59.19,6.88.01.29.02.58.03.87.03.4.06.79.09,1.19-.16.55-.33,1.1-.5,1.68-.14.02-.32.08-.49.08-5.08.04-5.11.04-5.05-5.1.02-1.52.26-3.03.39-4.55.03-.04.08-.08.07-.12-.01-.09-.05-.17-.08-.26Z"/>
    <path class="cls-1" d="m202.32,179.33c-.04.22-.08.44-.12.66-2.04,5.12-5.65,8.3-11.27,8.59-3.84.2-7.7,0-11.56,0v-24.29c5.67.35,11.32-.78,16.82.88,3.02.91,4.86,3.35,5.6,6.23.59,2.3.39,4.82.54,7.23,0,.24,0,.48,0,.71Zm-5.5-3.93c-.3-1.46-.59-2.93-.91-4.39-.55-2.57-2.23-3.85-4.76-4.16-.1-.03-.21-.04-.31-.04-.13-.1-.27-.19-.4-.29-1.62-.1-3.23-.2-5.3-.32v16.35c0,.12,0,.24,0,.36,0,.36,0,.71,0,1.07.2,1-.82,2.81,1.02,2.76,2.06-.05,4.11-.84,6.17-1.3,4.09-2.18,4.69-5.93,4.5-10.04Z"/>
    <path class="cls-1" d="m278.48,188.26c-.32.21-.65.62-.96.61-1.52-.07-3.04-.24-4.68-.39v-24.09c3.84,0,7.76-.3,11.62.09,3.18.32,4.76,3.1,4.65,6.86-.07,2.3-2.38,4.48-5.65,5,.63,1.02,1.18,1.92,1.75,2.81,1.77,2.75,3.55,5.48,5.3,8.24.25.4.29.93.37,1.22-1.73,0-3.3.06-4.86-.03-.57-.03-1.12-.43-1.68-.66-.08-.12-.15-.23-.23-.35,0,0,0,0,0,0-1.45-2.71-2.89-5.42-4.38-8.11-.2-.35-.63-.57-.96-.85-.25.47-.72.94-.7,1.4.08,2.76.27,5.51.42,8.27Zm-.34-20.69c0,1.4.01,2.8.02,4.21,0,.27,0,.53.01.8.03.92.06,1.85.09,2.77-.03.05-.08.11-.07.15.03.11.09.2.14.3,1.82.52,4.74-.9,4.99-2.61.22-1.51.25-3.1.04-4.61-.29-2.08-3.47-2.95-5.15-1.52-.02.17-.05.34-.07.5Z"/>
    <path class="cls-1" d="m173.41,180.45c0,.32.01.64.02.97,0,.15,0,.31,0,.46,0,.32,0,.65,0,.97,0,.63.02,1.26.02,1.89,0,.32,0,.65,0,.97-.03.86-.06,1.73-.09,2.59-1.09-.02-2.18-.04-3.27-.05-4.48-5.02-8.95-10.04-13.46-15.03-.43-.47-1.1-.72-1.67-1.07-.09.2-.27.41-.27.61,0,3.63.03,7.26.05,10.89-.02,1.12.02,2.25-.08,3.37-.05.52-.26,1.37-.58,1.46-.69.2-1.58.21-2.21-.09-.32-.15-.34-1.14-.32-1.75.03-1.11.17-2.21.28-3.31.13-1.22.28-2.43.41-3.64.1-.81.29-1.63.28-2.44-.05-3.36-.16-6.72-.25-10.09,0-.35-.02-.7-.03-1.05.02-.04.07-.09.07-.13-.01-.09-.06-.18-.09-.26.03-.23.07-.46.1-.7.12-.05.19-.13.23-.25,1.75-1.19,3.03-.12,4.13,1.03,3.19,3.32,6.31,6.71,9.46,10.07.32.34.69.64,1.03.96.13.13.25.26.38.38,0,0-.02-.02-.02-.02,1.11,1.08,1.68,2.77,3.54,3.36v-16.1h2.34v10.54c0,1.82,0,3.64,0,5.46Z"/>
    <path class="cls-1" d="m220.83,186.8c-3.8-2.87-5.65-6.73-4.93-11.4.82-5.31,3.81-9.04,9.14-10.72,4.41-1.39,8.69-.8,12.94.55,1.63.52,1.5,2.32-.2,4.06-1-.78-1.88-1.84-3.01-2.3-5.49-2.2-10.91.06-12.59,6.51-.98,3.73-.33,7.05,1.53,10.28,1.26,2.19,6.45,4.54,9.74,2.71.51-.28.89-1.2.93-1.84.11-2.17.04-4.35.04-6.73,1.5.13,3.29.29,4.98.43,0,3.01,0,6.05,0,9.09-1.96.51-3.9,1.2-5.89,1.48-1.88.26-3.87.39-5.71.04-2.38-.45-4.65-1.42-6.97-2.16Z"/>
    <path class="cls-1" d="m82.43,188.56c-1.28,0-2.55,0-3.83,0-.01-3.55,0-7.1-.06-10.65,0-.59-.25-1.18-.38-1.76-3.11-.02-6.22-.01-9.34-.06-.89-.01-1.18.3-.92,1.14-.03,3.26-.1,6.53-.09,9.79,0,1.26.05,2.3-1.76,1.63-.57-.21-1.28-.03-2.06-.03v-24.9h3.82c0,2.74-.04,5.51.03,8.28.02.67.43,1.34.66,2,2.86.02,5.71.04,8.57.06.41-.13.82-.27,1.24-.4.07-.13.14-.27.21-.4-.12-2.71-.17-5.43-.37-8.13-.11-1.53.48-2.04,1.94-1.89.76.08,1.54.02,2.32.02,0,1.9,0,3.79,0,5.69,0,.25,0,.5-.01.75,0,1.17-.01,2.35-.02,3.52-.04.04-.11.09-.1.13.01.1.06.2.09.3,0,3.2.02,6.39.03,9.59,0,.37.01.74.02,1.11,0,1.4,0,2.81,0,4.21Z"/>
    <path class="cls-1" d="m299.48,164.27c1.02-.1,1.11.49,1.08,1.31-.14,3.94-.44,7.89-.31,11.83.1,3.18.15,6.55,3.46,8.56,2.01,1.22,4.06,1.13,5.96.13,1.93-1.01,3.36-2.57,3.41-5.02.07-3.66.3-7.32.33-10.98.02-1.74-.25-3.48-.39-5.33h3.79c-.17,5.45-.27,10.81-.54,16.16-.06,1.26-.72,2.48-1.1,3.72-1.11,1.03-2.06,2.45-3.37,3.01-5.18,2.21-10.24,2.19-14.79-1.67-1.59-2.35-1.92-5.01-1.87-7.75-.02-3.2-.04-6.4-.06-9.6,0-.61,0-1.23-.01-1.84.08-.1.08-.2,0-.3,0-.49,0-.98-.01-1.47.73-.19,1.44-.43,2.18-.55.74-.13,1.5-.14,2.25-.2Z"/>
    <path class="cls-1" d="m250.77,180.41c.33,1.12.47,2.35,1.03,3.34,1.46,2.58,4.03,3.46,7.24,2.7,2.19-.51,3.96-2.69,4.32-5.25.11-.75.27-1.49.41-2.23.03-.04.09-.07.09-.11,0-.09-.04-.17-.06-.26.02-.22.03-.44.05-.66-.02-3-.04-6-.07-9-.14-1.33-.28-2.67-.45-4.2,1.16-.19,2.26-.37,3.66-.6v5.9c0,.24,0,.47,0,.71,0,.24,0,.47,0,.71-.12,3.34-.25,6.68-.37,10.02-.07.08-.09.16-.07.26-1.56,5.36-5.49,7.52-10.46,7.25-.65-.04-1.31-.03-1.97-.04-3.02-.03-5.56-1.2-7.11-3.75-.93-1.53-1.24-3.44-1.83-5.17,0,0-.04.05-.04.05,0-.15,0-.3,0-.45,0-.1-.02-.2-.07-.29.11-2.74.23-5.48.34-8.23v-6.68h5.36v4.17c0,3.94-.01,7.88-.02,11.81Z"/>
    <path class="cls-1" d="m219.75,272.69c-1.06-.02-2.12-.05-3.18-.07-.47-.21-.92-.58-1.4-.61-2.58-.19-4.42-1.64-6.13-3.38-1.82-2.84-1.42-4.76,1.42-6.77.14-.09.29-.18.43-.27,0,0-.03.04-.03.04.92,0,1.85,0,3.11,0-1.43,2.79-4.47,5.49-.23,8.19.23-.86.31-1.63.63-2.28,1.95-3.93,4.18-7.73,5.86-11.76,1.21-2.9,3.19-3.49,6.03-3.29-1.13,2.28-2.24,4.51-3.6,7.25,2.09-.44,3.76-.55,5.24-1.15,3.54-1.46,4.07-5.54,1.1-7.66.14-.39.28-.78.41-1.18,2.05.69,4.05,1.45,5.08,3.59.55,4.38-2.48,6.13-5.45,7.34.7,1.28,1.27,2.34,1.84,3.39.41,2.58-1.02,4.33-2.66,6,0,0,.03-.03.03-.03-2.63,1.56-5.46,2.46-8.51,2.67Zm2.17-2.19c1.42-1.26,3.06-2.36,4.2-3.83,1.69-2.17.71-5.09-1.86-6.07-.97-.37-1.99-.34-2.56.84-.65,1.32-1.32,2.62-1.99,3.93-1.41,1.76-1.67,4.53-4.66,4.95,2.41,1.28,4.64,1.05,6.88.19Z"/>
    <path class="cls-1" d="m176.45,267.02c-.73,1.24-1.47,2.47-2.17,3.72-.81,1.45-3.44,1.7-4.61.46-.76-.81-1.14-.22-1.43.5-1.3.09-2.61.18-3.91.27-.44-.59-.89-1.19-1.42-1.9-.69.43-1.43.89-2.17,1.34-1.31.18-2.61.35-3.92.52-.6-.83-1.2-1.66-1.8-2.49,0-.86,0-1.73,0-2.59.21-.53.36-1.09.64-1.59,1.85-3.32,4.43-5.87,7.97-7.36,1.09,0,2.18-.02,3.27-.03-.06.38-.03,1.04-.18,1.09-2.88.86-4.98,2.79-6.48,5.22-1.06,1.71-2.5,3.5-1.67,6.33,1.2-.54,2.58-.75,3.26-1.55,2.48-2.92,4.69-6.05,5.77-9.83.07-.25.68-.35,1.05-.52,1.07,0,2.14,0,3.21.01.15.13.29.26.44.39-.19.42-.37.85-.58,1.25-1.41,2.65-2.88,5.27-4.2,7.96-.22.44.19,1.18.32,1.79.71-.28,1.5-.45,2.12-.87.43-.3.64-.93.92-1.42,1.59-2.8,3.17-5.61,4.75-8.41,0,0,.12-.09.12-.09.27-.3.55-.6.82-.9,1.18-.03,2.36-.07,3.54-.1.11.04.23.08.34.12-.26.7-.57,1.38-.75,2.09-.13.49-.08,1.03-.11,1.54-.43.68-.86,1.37-1.28,2.05,0,0,0,0,0,0-.38.59-.76,1.17-1.14,1.76,0,0,.06-.04.06-.04-.12.14-.25.29-.37.43,0,0,.01-.02.01-.02-.13.28-.26.56-.39.84Z"/>
    <path class="cls-1" d="m257.61,260.1c-.22.26-.45.52-.67.78-1.33,2.48-2.67,4.97-4,7.45-.7,1.47-1.4,2.94-2.1,4.4,0,.21.02.43.02.64-1.79,1.31-3.58,2.61-5.37,3.92-.25-.62-.49-1.24-.74-1.86.51-1.05,1.13-2.06,1.49-3.16.24-.75.15-1.35-1.15-1.17-1.77.24-3.07-.83-3.88-2.43-.38-.62-.76-1.23-1.14-1.85,1.72-2.97,3.31-6.06,6.55-7.75,1.41-.27,2.81-.53,4.22-.8.32.06.65.12,1.15.21-.44.3-.7.57-1.02.68-3.36,1.2-5.16,3.79-6.19,7.01-.22.68.05,1.52.09,2.28.81-.11,1.82.04,2.39-.38,3.01-2.22,4.28-5.6,5.8-9.05,1.31.14,2.81.3,4.31.5.1.01.15.38.22.58Z"/>
    <path class="cls-1" d="m48.14,166.16c-.62.11-1.34.47-1.85.27-.55-.22-1.14-.89-1.27-1.47-.08-.35.67-1.28,1.07-1.29,4.73-.12,9.46-.14,14.2-.11.3,0,.75.68.84,1.1.11.54-.07,1.15-.12,1.73-1.86-.19-3.73-.38-5.75-.58v22.71c-1.41.56-2.8.98-4.1-.25,0-2.41,0-4.82,0-7.23,0-.2,0-.41,0-.61,0-.27,0-.55,0-.82,0-.2,0-.41,0-.61,0-.27,0-.55,0-.82v-.61c0-.27,0-.54,0-.82,0-.2,0-.41,0-.61,0-.27,0-.54,0-.81,0-.2,0-.41,0-.61,0-.15,0-.31,0-.46,0-.32,0-.65,0-.97,0-.27,0-.54,0-.81,0-.2,0-.41,0-.61,0-1.7,0-3.41-.01-5.11-.77-1.41-2.01-.43-3.02-.6Z"/>
    <path class="cls-1" d="m145.3,171.9v16.63h-5.61c0-1.96,0-3.96,0-5.96.1-.38.29-.75.29-1.13.02-4.27.02-8.54,0-12.81,0-.38-.19-.75-.3-1.13v-3.09h5.7v5.97c-.03.5-.06,1.01-.09,1.51Z"/>
    <path class="cls-1" d="m93.21,188.54c-.48,0-.97,0-1.45.01-.12,0-.23.01-.35.02-1.23-.17-2.46-.34-3.7-.51.01-7.95.02-15.91.04-23.86h11.42c.37,1.3-.09,1.99-1.55,1.89-1.35-.09-2.69-.28-4.04-.33-1.47-.05-2.31.49-2.2,2.22.14,2.13.03,4.28.03,6.76,2.27-.11,4.46-.21,6.72-.32v2.52c-2.08-.29-4.03-.56-5.98-.82-.26.5-.74.99-.75,1.5-.07,2.25-.03,4.51.02,6.76.01.73.17,1.46.26,2.19.75.12,1.49.23,2.24.35-.23.55-.46,1.09-.7,1.64Z"/>
    <path class="cls-1" d="m140.5,264.78c1.81-2.7,3.8-5.27,7.14-6.07,1.62-.39,3.39-.39,5.07-.23.61.06,1.14,1.07,1.71,1.65-.21,1.21-.07,2.64-.68,3.57-1.81,2.74-4.44,4.37-7.81,4.68-.9.08-1.78.33-2.83.54.42.86.76,1.55,1.11,2.25-2.03.74-2.85.32-4.18-2.08-.47-.61-.95-1.21-1.42-1.82.63-.83,1.27-1.65,1.9-2.48Zm10.82-5.65c-2.55-.14-6.83,4.44-7.25,7.66,3.23.13,7.54-4.34,7.25-7.66Z"/>
    <path class="cls-1" d="m122.41,249.79c2.21.65,4.19,1.75,4.89,4.05.42,1.4.23,2.99.31,4.5-1.59,8.73-9.05,14.51-17.96,13.93,0,0,.04-.12.04-.12.11-.45.22-.89.33-1.34.66.04,1.32.17,1.97.1,2.72-.29,4.88-1.68,6.69-3.64,2.82-3.04,4.45-6.75,5.46-10.68.52-2.03.19-4.12-1.84-5.47-.19-.17-.38-.34-.57-.51.23-.28.46-.55.69-.83Z"/>
    <path class="cls-1" d="m188.99,261.19c-1.75,2.68-3.61,5.29-5.22,8.05-1.76,3.02-1.69,3.1-5.58,2.46.3-.65.57-1.24.85-1.84.33-.63.67-1.27,1-1.9l.08-.05s-.02-.09-.02-.09c1.27-2.6,3.75-4.67,3.54-8.03h-1.73c-.14-.35-.27-.7-.41-1.06,4.32-1.6,4.6-1.56,6.75.99.25.48.5.97.75,1.45Z"/>
    <path class="cls-1" d="m136.79,270.76c-.36.25-.71.5-1.07.75-1.55.03-3.1.06-4.64.09-1.04-.99-1.23-2.23-1.05-3.58,1.33-2.2,2.7-4.39,3.99-6.61.9-1.55.35-2.35-1.49-2.3,0-.36,0-.71,0-1.07,2.05-.72,3.89-.27,5.59.97-.58,2.1-1.15,4.2-1.73,6.29-.62,1.11-1.29,2.19-1.84,3.34-.23.48-.18,1.1-.26,1.66.48-.17.96-.34,1.44-.51.35.33.7.65,1.05.98Z"/>
    <path class="cls-1" d="m195.48,258c1.41,1.77.72,3.53-.05,5.29-1.41,2.08-3.06,4.05-3.34,7.23,1.17-.65,1.9-1.05,2.63-1.46-.24.6-.47,1.2-.71,1.79-2.33,1.56-3.88,1.54-5.71-.08.14-1.09.03-2.29.47-3.23.91-1.98,2.13-3.82,3.19-5.74.49-.89.71-1.73-.8-1.74-.13-.58-.26-1.15-.39-1.73,1.56-.11,3.13-.22,4.69-.33Z"/>
    <path class="cls-1" d="m233.43,264.09c.67-1.17,1.38-2.31,2-3.51,1.21-2.34,2.65-2.88,5.34-1.91-1.7,3.2-3.42,6.4-5.09,9.62-.23.44-.23,1.01-.33,1.52.52-.01,1.04-.02,1.57-.03.35.23.7.46,1.06.69-.36.3-.73.59-1.09.89-1.52.11-3.04.23-4.57.34-.37-.4-.73-.81-1.1-1.21.07-.51.03-1.05.21-1.51.63-1.64,1.33-3.25,2.01-4.87Z"/>
    <path class="cls-1" d="m142.58,146.41c-.95.2-1.9.48-2.86.57-.36.03-.76-.37-1.13-.58.02-.09.05-.18.1-.26,1.39-.02,2.89.07,2.28-2.11.18-2.23-.44-4.12-2.32-5.48.02-.59.04-1.19.06-1.78,0-.35,0-.69,0-1.04-.02-.25-.04-.49-.05-.74.47-.36.95-.73,1.42-1.09.35-.55.96-1.09.99-1.66.12-2.4.06-4.81.07-7.22.47-.13.94-.25,1.41-.38.16,1.11-.04,2.4,1.43,2.85-.01.27-.03.54-.04.8-.45.39-1.26.76-1.28,1.16-.05,1.25.21,2.52.35,3.77-.16.74-.46,1.48-.46,2.22-.03,3.65.03,7.3.05,10.96Z"/>
    <path class="cls-1" d="m230.49,118.18c1.19.35,2.38.71,3.58,1.06.08,1.66,1.36,1.38,2.4,1.48.08.07.13.16.15.27.05.26.11.51.16.77-.02.23-.04.46-.05.69-.21.45-.43.9-.64,1.35.63.05,1.27.1,1.9.15.67.15,1.35.31,2,.45.4,2.8-2.18,4.81-4.79,3.86-.81-.29-1.71-.35-2.57-.52.14-.57.28-1.14.41-1.71.64-.34,1.78-.62,1.82-1.03.26-2.3-.93-3.57-3.67-4.04.14.68.26,1.27.38,1.85-.37.12-.73.25-1.1.37-.12-.48-.23-.95-.35-1.43.12-1.19.23-2.38.35-3.58l.02-.02Z"/>
    <path class="cls-1" d="m176.15,95.67c-.51-.49-1.15-.91-1.51-1.49-.76-1.23-1.57-2.31-3.15-2.43-.36-.47-.68-.99-1.1-1.41-.65-.65-1.36-1.22-2.05-1.83-.07-1.09-.54-2.33,1.01-2.84.39.11.89.11,1.14.36,1.09,1.1,2.21,1.29,3.47.36,0,0,.02.04.02.04.04.72.08,1.43.11,2.15-.09.57-.16,1.15-.29,1.72-.36,1.61.05,2.05,1.7,1.72.4-.08.77-.27,1.15-.42.18.04.35.09.53.13,1.24.15,2.11.55,1.44,2.06-.09.2.01.59.17.76.94,1.02.52,1.67-.52,2.19-.28-.66-.57-1.32-.85-1.98-.42.3-.85.6-1.27.89Z"/>
    <path class="cls-1" d="m115.35,250.75c-3.95,1.18-6.03,3.92-6.78,7.89-.14.76-.74,1.44-1.13,2.15-.46-.44-.93-.89-1.39-1.33-1.42-2.26-.62-4.23,1.02-5.87,2.28-2.28,4.88-4.08,8.29-4.23,0,.46,0,.92,0,1.38Z"/>
    <path class="cls-1" d="m222.61,250.41c-5.47.99-7,5.3-7.99,10.16-1.01-.71-1.67-1.17-2.33-1.63-1.15-2.39.23-4.13,1.67-5.68,2.49-2.68,5.66-3.98,9.35-3.89-.24.35-.47.7-.71,1.05Z"/>
    <path class="cls-1" d="m227.25,146.02c-.35.03-.71,0-1.04.1-1.16.36-2.14.44-2.67-.99-.09-.26-.67-.35-1.02-.52.2-.93.39-1.87.59-2.8.45.37.9.74,1.52,1.24-.05-.69-.08-1.18-.11-1.68,2,.39,1.21-.82.98-1.71.02-.23.03-.45.05-.68,0-.62.01-1.24.02-1.86-.25-1.66-.5-3.32-.75-4.98.5-.58,1.01-1.16,1.51-1.75.04.24.07.47.11.71,0,.23.02.45.03.68.25,1.45.51,2.89.76,4.34.11,2.73.21,5.46.32,8.19,0,.35,0,.69,0,1.04-.1.22-.19.45-.29.67Z"/>
    <path class="cls-1" d="m163.58,101.8c-.82-.37-1.64-.75-2.45-1.12.52-.98,2.14-1.56,1.06-3.25-.47.15-.96.29-1.44.44-1.32.1-1.85-.58-1.83-1.83.15-.59.29-1.19.44-1.78.19-.28.39-.57.58-.85.03-.08.07-.16.13-.22.59.47,1.18.94,1.76,1.41,1.25,1.15,2.67.6,4.05.39.32,0,.64,0,.96-.01.12.84.25,1.68.37,2.52-.48.39-.96.77-1.44,1.16-1.89.22-2.39,1.39-2.11,3.09l-.08.07Z"/>
    <path class="cls-1" d="m105.36,261.23h2.18c-1.9,2.76-4.35,5.21-1.77,8.45-.36.38-.72.76-1.08,1.14-2.92-1.5-3.88-3.28-3.48-6.46,1.39-1.05,2.77-2.09,4.16-3.14Z"/>
    <path class="cls-1" d="m187.25,91.44c.04-.34.16-.7.11-1.03-.13-.77-.34-1.52-.52-2.27-.56.29-1.12.6-1.69.88-.15.07-.33.08-.5.12.23-.59.45-1.19.68-1.78-.57-.24-1.1-.46-1.63-.69.02-.85.04-1.71.07-2.56,0,0,.11-.12.11-.12.18-.25.35-.51.53-.76,1.71-1.33,2.36-1.1,2.86.91.1.42.42.79.64,1.18.25,1.08.57,2.14.73,3.23.18,1.22,0,2.37-1.38,2.88Z"/>
    <path class="cls-1" d="m80.31,236.74c.7-.07,1.41-.21,2.11-.21,21.37-.01,42.73-.01,64.1,0,.7,0,1.41.13,2.11.2-.65.05-1.3.15-1.95.15-21.47,0-42.95.01-64.42,0-.65,0-1.3-.09-1.95-.14Z"/>
    <path class="cls-1" d="m223.01,115.82c-.97-2.65-1.5-2.98-4.23-2.6-.18.02-.36.09-.53.06-.88-.19-1.76-.41-2.64-.62.25-1.02.48-2.05.77-3.07.11-.38.37-.73.56-1.09,1.06.13,2.11.27,3.17.4h0c-.11,2.6,1.46,4,3.58,5.02,0,.59,0,1.19,0,1.78-.23.04-.45.08-.68.12Z"/>
    <path class="cls-1" d="m151.14,101.43c-.24-.36-.49-.73-.73-1.09.07-.82.14-1.64.21-2.46.03-.51.06-1.01.09-1.52,1.86-1.02,1.88.73,2.47,1.63.46.22.91.58,1.39.63.75.08,1.51-.06,2.27-.1,0,0,0,0,0,0,0,.35.01.7.02,1.06-.37.16-1,.26-1.05.5-.38,1.69-1.78,1.45-2.94,1.7-.58-.11-1.16-.22-1.75-.34Z"/>
    <path class="cls-1" d="m174.09,88.58c-.04-.72-.08-1.43-.11-2.15,1.44.49,2.8.84,3.06-1.36.02-.17.34-.31.52-.46.69.36,1.38.73,2.07,1.09.38,1.15.77,2.3,1.15,3.45-.49.03-1.08.24-1.45.04-1.81-1-2.44-.25-2.5,1.52-.4-.51-.72-1.11-1.21-1.51-.41-.33-1.01-.42-1.52-.62Z"/>
    <path class="cls-1" d="m239.02,255.13c-.31-1.05-1.3-2.05-.25-3.21.25-.15.48-.32.74-.43,1.69-.71,3.63-.25,4.04,1.21.43,1.51-.87,2.22-1.99,2.87-.83-.06-1.65-.12-2.48-.17.02-.1,0-.19-.07-.27Z"/>
    <path class="cls-1" d="m131.59,128.59c0-.26-.01-.53-.02-.79.35-.34.71-.68,1.41-1.36.13,1.16.2,1.83.27,2.5,0,2.24.04,4.49-.07,6.73-.03.57-.58,1.12-.9,1.68-.27-.57-.77-1.12-.79-1.7-.07-2.24,0-4.48.03-6.73.02-.11.04-.22.06-.33Z"/>
    <path class="cls-1" d="m145.76,107.8c-1.28,2.14-3.15,1.57-5.01,1.09.17-.49.4-.97.51-1.47.47-2.05.84-2.28,2.88-2.12,1.73.14,1.08,1.68,1.62,2.5Z"/>
    <path class="cls-1" d="m221.88,236.73c.53-.07,1.05-.19,1.58-.19,13.8-.01,27.6-.01,41.4,0,.58,0,1.17.13,1.75.21-.59.05-1.18.14-1.77.14-13.67,0-27.34.01-41.01,0-.65,0-1.3-.1-1.95-.15Z"/>
    <path class="cls-1" d="m140.06,133.9c-.47.36-.95.73-1.42,1.09-.08-1.84-.09-3.69-.27-5.52-.09-.91-.49-1.79-.76-2.68.8-.01,1.6-.03,2.4-.04.01,2.38.03,4.76.04,7.14Z"/>
    <path class="cls-1" d="m130.76,257.93c.59.03,1.19.06,1.78.09,0,.36,0,.71,0,1.07-1.02,1.77-1.98,3.59-3.09,5.3-.48.74-1.28,1.28-1.93,1.91-.11-.05-.22-.09-.34-.11.73-1.38,1.55-2.73,2.14-4.17.38-.93.44-1.99.64-3,.27-.37.53-.74.8-1.11Z"/>
    <path class="cls-1" d="m245.5,277.3c-1.42.1-2.85.2-4.27.3-1.06-.73-2.13-1.46-3.19-2.2,1.9-1.99,2.57-2.01,3.16-.75.91,1.97,1.65,2.13,3.57.78.25.62.49,1.24.74,1.86Z"/>
    <path class="cls-1" d="m314.92,236.2c-.02-11.47-.04-22.94-.05-34.42,0-.46.19-.91.29-1.37.01,10.89.03,21.78.02,32.67,0,1.04-.17,2.08-.26,3.12Z"/>
    <path class="cls-1" d="m230.47,123.2c.37-.12.73-.25,1.1-.37,1.67.53,1.33,1.98,1.46,3.21-.14.57-.28,1.14-.41,1.71-.11.04-.23.08-.34.12-.36-.01-.72-.03-1.08-.04-.72-1.07-1.44-2.13-2.16-3.2l1.43-1.43Z"/>
    <path class="cls-1" d="m93.21,188.54c.23-.55.46-1.09.7-1.64,1.72-.17,3.44-.33,5.14-.5.43,1.49.21,2.24-1.25,2.2-1.53-.04-3.06-.05-4.59-.07Z"/>
    <path class="cls-1" d="m254.43,269.32c.95-1.17,1.9-2.33,2.85-3.5.23.03.46.06.69.09-.18.57-.25,1.21-.56,1.7-.61.97-1.34,1.86-2.02,2.78,0,0,.03-.02.03-.02-.34.27-.68.55-1.01.82,0,0,.03-.01.03-.01-.12.13-.25.26-.37.39,0,0,0-.01,0-.01-1.06.61-2.13,1.22-3.19,1.83,0-.21-.02-.43-.02-.64,1.19-1.14,2.39-2.28,3.58-3.41Z"/>
    <path class="cls-1" d="m161.84,94.59c-.59-.47-1.18-.94-1.76-1.41-.03-1.98,1.43-1.77,2.7-1.82,1.21-.04,2.09.32,1.99,1.76-.98.49-1.95.98-2.93,1.47Z"/>
    <path class="cls-1" d="m138.64,138.55c1.88,1.36,2.5,3.25,2.32,5.48-.64.2-1.28.4-1.92.6-.13-2.03-.26-4.05-.4-6.08Z"/>
    <path class="cls-1" d="m231.2,127.83c.36.01.72.03,1.08.04-.23,1-.59,2-.67,3.02-.12,1.48-.04,2.97-.05,4.46-.12.56-.18,1.16-.4,1.67-.07.15-.63.08-.96.12,0-.22,0-.44,0-.66.09-.64.23-1.27.27-1.91.12-2.18.2-4.36.3-6.53.15-.07.3-.14.45-.21Z"/>
    <path class="cls-1" d="m133.97,146.4c-.86-.01-1.71-.02-2.57-.04,0-.1-.01-.21-.03-.31.03-1,0-2,.12-2.99.06-.54.36-1.05.54-1.58.21,0,.43,0,.64.01.26.97.53,1.94.79,2.91.18.66.34,1.33.51,2Z"/>
    <path class="cls-1" d="m184.69,236.75c.46-.07.93-.21,1.39-.21,8.02-.01,16.04-.01,24.07,0,.47,0,.93.13,1.4.2-2.55.05-5.09.15-7.64.14-6.4-.02-12.81-.09-19.21-.14Z"/>
    <path class="cls-1" d="m121.13,127.47c.57-.16.9-1.76,1.74-.3-.27,2.02-.53,4.04-.8,6.06-.44,0-.89,0-1.33-.01.13-1.92.25-3.84.38-5.75Z"/>
    <path class="cls-1" d="m206.88,104.26c.36-.37.74-.72,1.08-1.1.38-.43.72-.89,1.07-1.34,1.36.02,1.06,1.04,1.02,1.8-.04.82-.25,1.63-.38,2.44-1.29-.04-2.41-.35-2.79-1.79Z"/>
    <path class="cls-1" d="m109.31,272.16c-1.54-.47-3.37.1-4.63-1.33.36-.38.72-.76,1.08-1.14.35-.09.7-.19,1.05-.28,1.03.36,2.06.71,3.09,1.07.03.11.06.23.1.34-.11.45-.22.89-.33,1.34-.13,0-.25,0-.38.01Z"/>
    <path class="cls-1" d="m133.25,128.94c-.07-.67-.15-1.34-.27-2.5-.7.68-1.06,1.02-1.41,1.36-.37-.09-.74-.18-1.12-.27.92-1.81,1.83-3.62,2.75-5.44.15.73.29,1.47.44,2.2-.13,1.55-.26,3.1-.39,4.64Z"/>
    <path class="cls-1" d="m87.75,164.19c-.01,7.95-.02,15.91-.04,23.86-.08-.28-.22-.56-.22-.83,0-7.34,0-14.68.01-22.02,0-.33.16-.67.24-1Z"/>
    <path class="cls-1" d="m173.96,86.39c-1.27.93-2.39.74-3.47-.36-.25-.25-.75-.25-1.14-.36.25-.14.52-.26.74-.44.57-.47,1.47-1.46,1.61-1.36.82.59,1.47,1.43,2.16,2.19.07.08.07.22.1.33Z"/>
    <path class="cls-1" d="m192.57,94.21c.26-.85.53-1.69.79-2.54.84.24,1.67.47,2.51.71-.62.96-1.14,2.01-1.89,2.85-.34.37-1.15.31-1.74.45.11-.49.22-.98.33-1.47Z"/>
    <path class="cls-1" d="m187.23,198.38c-7.39,0-14.78,0-22.17,0,7.39,0,14.78,0,22.17,0Z"/>
    <path class="cls-1" d="m230.13,198.38c-.52.09-1.04.24-1.56.24-6.35.02-12.7.02-19.05,0-.52,0-1.04-.16-1.56-.24,7.39,0,14.78,0,22.17,0Z"/>
    <path class="cls-1" d="m270.49,236.74c.64-.07,1.28-.21,1.93-.21,6-.02,12-.02,18,0,.64,0,1.29.13,1.93.2-5.81.05-11.61.11-17.42.14-1.48,0-2.96-.09-4.43-.14Z"/>
    <path class="cls-1" d="m115.35,250.75c0-.46,0-.92,0-1.38,2.35.14,4.7.28,7.05.42-.23.28-.46.55-.69.83-2.12.04-4.24.09-6.37.13Z"/>
    <path class="cls-1" d="m226.32,130.38c-.5.58-1.01,1.16-1.51,1.75-.13-.11-.26-.23-.38-.34-.03-1.08-.06-2.16-.09-3.24.74-.35,1.47-.7,2.21-1.05-.08.96-.15,1.92-.23,2.88Z"/>
    <path class="cls-1" d="m149.67,100.3c-.02.53.09,1.09-.07,1.58-.44,1.39-.19,2.49.93,3.48.3.27.27.92.38,1.39-.43,0-.86-.02-1.29-.03-.43-1.89-.85-3.78-1.28-5.68.44-.25.88-.5,1.33-.74Z"/>
    <path class="cls-1" d="m222.61,250.41c.24-.35.47-.7.71-1.05,2.03.12,4.07.25,6.1.37-.14.39-.28.78-.41,1.18-2.13-.17-4.26-.33-6.4-.5Z"/>
    <path class="cls-1" d="m114.3,198.37c-.82.09-1.63.24-2.45.25-4.45.02-8.89.02-13.34,0-.7,0-1.4-.16-2.09-.24,5.96,0,11.92,0,17.88,0Z"/>
    <path class="cls-1" d="m204.74,99.63c-1.38-.81.3-1.19.26-1.82.23.39.4.82.69,1.15.73.84,1.51,1.63,2.27,2.45-.48.12-.95.24-1.43.35-.35-.25-.7-.49-1.04-.74-.11-.37-.22-.75-.32-1.12-.14-.09-.28-.18-.42-.28Z"/>
    <path class="cls-1" d="m237.97,270.46c-.35-.23-.7-.46-1.06-.69,1.06-.98,2.11-1.97,3.17-2.95.38.62.76,1.23,1.14,1.85-.49.12-1.06.13-1.46.39-.6.39-1.09.96-1.63,1.45,0,0,.03,0,.03,0l-.11.02-.08-.08Z"/>
    <path class="cls-1" d="m314.79,198.67c-4.41-.01-8.81-.02-13.22-.05-.7,0-1.4-.16-2.1-.25,4.67-.04,9.33-.08,14-.09.44,0,.88.25,1.31.39Z"/>
    <path class="cls-1" d="m299.09,236.75c2.76-.07,5.51-.19,8.27-.2,2.29-.01,4.59.08,6.88.13-2.4.07-4.81.2-7.21.2-2.65,0-5.3-.08-7.94-.13Z"/>
    <path class="cls-1" d="m57.43,236.75c3.37-.08,6.74-.18,10.11-.21,1.53-.01,3.06.13,4.59.21-4.9,0-9.8,0-14.7,0Z"/>
    <path class="cls-1" d="m294.48,198.38c-2.12.09-4.23.24-6.35.24-2.41,0-4.83-.15-7.24-.24,4.53,0,9.06,0,13.59,0Z"/>
    <path class="cls-1" d="m188.25,259.74c.85-.47,1.69-.94,2.54-1.41.13.58.26,1.15.39,1.73-.73.38-1.45.75-2.18,1.13-.25-.48-.5-.97-.75-1.45Z"/>
    <path class="cls-1" d="m120.7,134.66c.02-.48.03-.96.05-1.44.44,0,.89,0,1.33.01,0,1.06,0,2.11,0,3.17-.23.04-.45.08-.68.13-.23-.62-.47-1.25-.7-1.87Z"/>
    <path class="cls-1" d="m156.09,236.76c4.19,0,8.37-.01,12.56-.02-4.19,0-8.37.01-12.56.02Z"/>
    <path class="cls-1" d="m152.27,167.17c.09,3.36.2,6.72.25,10.09.01.81-.18,1.62-.28,2.44,0-4.17.02-8.35.03-12.52Z"/>
    <path class="cls-1" d="m139.04,144.63c.64-.2,1.28-.4,1.92-.6.61,2.18-.89,2.09-2.28,2.11.12-.5.24-1.01.35-1.51Z"/>
    <path class="cls-1" d="m250.77,180.41c0-3.94.01-7.88.02-11.81,0,3.94-.01,7.88-.02,11.81Z"/>
    <path class="cls-1" d="m167.91,90.3c.49.48.98.96,1.48,1.44-1.67-.24-1.52,1.53-2.4,2.16-.04-.24-.07-.49-.11-.73.34-.96.69-1.91,1.03-2.87Z"/>
    <path class="cls-1" d="m198.67,198.38c-3.58,0-7.15,0-10.73,0,3.58,0,7.15,0,10.73,0Z"/>
    <path class="cls-1" d="m75.69,198.38c-3.58,0-7.15,0-10.73,0,3.58,0,7.15,0,10.73,0Z"/>
    <path class="cls-1" d="m295.07,168.63c.02,3.2.04,6.4.06,9.6-.02-3.2-.04-6.4-.06-9.6Z"/>
    <path class="cls-1" d="m43.87,236.52c3.22.07,6.44.14,9.66.21-3.22-.07-6.44-.14-9.66-.21Z"/>
    <path class="cls-1" d="m55.67,198.38c-3.1-.02-6.21-.03-9.31-.05,3.1.02,6.21.03,9.31.05Z"/>
    <path class="cls-1" d="m263.79,168.94c.02,3,.04,6,.07,9-.02-3-.04-6-.07-9Z"/>
    <path class="cls-1" d="m77.09,174.06c-2.86-.02-5.71-.04-8.57-.06,2.86.02,5.71.04,8.57.06Z"/>
    <path class="cls-1" d="m227.54,144.31c-.11-2.73-.21-5.46-.32-8.19.11,2.73.21,5.46.32,8.19Z"/>
    <path class="cls-1" d="m145.76,198.38c-2.62,0-5.25.01-7.87.02,2.62,0,5.25-.01,7.87-.02Z"/>
    <path class="cls-1" d="m155.45,97.85c.47.22.93.44,1.4.66-.76.04-1.52.18-2.27.1-.48-.05-.93-.41-1.39-.63.75-.04,1.51-.09,2.26-.13Z"/>
    <path class="cls-1" d="m50.96,187.55c.07-2.16.14-4.33.2-6.49,0,2.41,0,4.82,0,7.22-.07-.24-.14-.49-.2-.73Z"/>
    <path class="cls-1" d="m237.99,123.95c-.63-.05-1.27-.1-1.9-.15.21-.45.43-.9.64-1.35.42.5.84,1,1.26,1.5Z"/>
    <path class="cls-1" d="m236.48,120.72c-1.04-.1-2.32.18-2.4-1.48.8.49,1.6.99,2.4,1.48Z"/>
    <path class="cls-1" d="m173.41,180.45c0-1.82,0-3.64,0-5.46,0,1.82,0,3.64,0,5.46Z"/>
    <path class="cls-1" d="m121.45,198.38c-1.67,0-3.34,0-5.01,0,1.67,0,3.34,0,5.01,0Z"/>
    <path class="cls-1" d="m244.43,198.38c-1.55,0-3.1,0-4.65,0,1.55,0,3.1,0,4.65,0Z"/>
    <path class="cls-1" d="m250.15,198.38c-1.55,0-3.1,0-4.65,0,1.55,0,3.1,0,4.65,0Z"/>
    <path class="cls-1" d="m268.74,198.38c-1.55,0-3.1,0-4.65,0,1.55,0,3.1,0,4.65,0Z"/>
    <path class="cls-1" d="m125.38,174.05c-1.43,0-2.87,0-4.3,0,1.43,0,2.87,0,4.3,0Z"/>
    <path class="cls-1" d="m298.77,198.38c-1.19,0-2.39,0-3.58,0,1.19,0,2.39,0,3.58,0Z"/>
    <path class="cls-1" d="m257.3,198.37c-1.19,0-2.39,0-3.58.01,1.19,0,2.39,0,3.58-.01Z"/>
    <path class="cls-1" d="m177.15,265.81c.38-.59.76-1.17,1.14-1.76-.38.59-.76,1.17-1.14,1.76Z"/>
    <path class="cls-1" d="m227.25,146.02c.1-.22.19-.45.29-.67.51.36,1.03.71,1.54,1.07-.61-.13-1.22-.26-1.83-.4Z"/>
    <path class="cls-1" d="m49.6,146.38c-.96-.02-1.91-.05-2.87-.07.96.02,1.91.05,2.87.07Z"/>
    <path class="cls-1" d="m173.37,188.31c.03-.86.06-1.73.09-2.59-.03.86-.06,1.73-.09,2.59Z"/>
    <path class="cls-1" d="m45.96,146.26c-.81.07-1.63.14-2.44.21.81-.07,1.63-.14,2.44-.21Z"/>
    <path class="cls-1" d="m160.06,198.38c-.72,0-1.44,0-2.15,0,.72,0,1.44,0,2.15,0Z"/>
    <path class="cls-1" d="m95.71,198.38c-.72,0-1.44,0-2.15,0,.72,0,1.44,0,2.15,0Z"/>
    <path class="cls-1" d="m201.53,198.38c-.72,0-1.43,0-2.15,0,.72,0,1.43,0,2.15,0Z"/>
    <path class="cls-1" d="m232.99,198.38c-.72,0-1.43,0-2.15,0,.72,0,1.43,0,2.15,0Z"/>
    <path class="cls-1" d="m271.6,198.38c-.72,0-1.43,0-2.15,0,.72,0,1.43,0,2.15,0Z"/>
    <path class="cls-1" d="m128.6,198.38c-.72,0-1.43,0-2.15,0,.72,0,1.43,0,2.15,0Z"/>
    <path class="cls-1" d="m253.01,198.38c-.72,0-1.43,0-2.15,0,.72,0,1.43,0,2.15,0Z"/>
    <path class="cls-1" d="m229.8,118.23c.09-.36.18-.73.27-1.09.14.35.28.7.42,1.04,0,0-.02.02-.02.02-.22,0-.45.02-.67.03Z"/>
    <path class="cls-1" d="m173.45,184.74c0-.63-.02-1.26-.02-1.89,0,.63.02,1.26.02,1.89Z"/>
    <path class="cls-1" d="m193.15,91.05c-.17-.39-.33-.78-.5-1.16.17.39.33.78.5,1.16Z"/>
    <path class="cls-1" d="m237.28,198.39c-.6,0-1.2,0-1.79,0,.6,0,1.2,0,1.79,0Z"/>
    <path class="cls-1" d="m254.4,271.19c.34-.27.68-.55,1.01-.82-.34.27-.68.55-1.01.82Z"/>
    <path class="cls-1" d="m112.2,170.03c0,.6.01,1.2.02,1.8,0-.6-.01-1.2-.02-1.8Z"/>
    <path class="cls-1" d="m197.6,91.4c-.26.22-.51.43-.77.65.26-.22.51-.43.77-.65Z"/>
    <path class="cls-5" d="m313.08,150.82c.47-.03.94-.06,1.41-.09-.47.03-.94.06-1.41.09Z"/>
    <path class="cls-1" d="m176.54,258.35c-.27.3-.55.6-.82.9.27-.3.55-.6.82-.9Z"/>
    <path class="cls-1" d="m43.29,234.67c.07.5.15,1,.22,1.5-.07-.5-.15-1-.22-1.5Z"/>
    <path class="cls-1" d="m128.44,180.35c-.06.51-.11,1.01-.17,1.52.06-.51.11-1.01.17-1.52Z"/>
    <path class="cls-1" d="m159.94,93.4c-.19.28-.39.57-.58.85.19-.28.39-.57.58-.85Z"/>
    <path class="cls-1" d="m145.3,171.9c.03-.5.06-1.01.09-1.51-.03.5-.06,1.01-.09,1.51Z"/>
    <path class="cls-1" d="m133.9,184.38c-.03-.39-.06-.77-.08-1.16.03.39.06.77.08,1.16Z"/>
    <path class="cls-1" d="m184.4,83.23c-.18.25-.36.51-.53.76.18-.25.36-.51.53-.76Z"/>
    <path class="cls-1" d="m138.69,135.73c0,.35,0,.69,0,1.04,0-.35,0-.69,0-1.04Z"/>
    <path class="cls-1" d="m206.87,150.82c.37,0,.73,0,1.1,0-.37,0-.73,0-1.1,0Z"/>
    <path class="cls-1" d="m117.85,186.87c-.03-.4-.06-.79-.09-1.19.03.4.06.79.09,1.19Z"/>
    <path class="cls-1" d="m130.03,198.38c-.24,0-.49,0-.73,0,.24,0,.49,0,.73,0Z"/>
    <path class="cls-1" d="m131.46,198.38c-.24,0-.49,0-.73,0,.24,0,.49,0,.73,0Z"/>
    <path class="cls-1" d="m132.89,198.39c-.24,0-.49,0-.73,0,.24,0,.49,0,.73,0Z"/>
    <path class="cls-1" d="m134.32,198.39c-.24,0-.49,0-.73,0,.24,0,.49,0,.73,0Z"/>
    <path class="cls-1" d="m236.78,121.76c-.05-.26-.11-.51-.16-.77.05.26.11.51.16.77Z"/>
    <path class="cls-1" d="m137.18,198.4c-.24,0-.49,0-.73,0,.24,0,.49,0,.73,0Z"/>
    <path class="cls-1" d="m124.31,198.38c-.24,0-.49,0-.73,0,.24,0,.49,0,.73,0Z"/>
    <path class="cls-1" d="m147.19,198.38c-.24,0-.49,0-.73,0,.24,0,.49,0,.73,0Z"/>
    <path class="cls-1" d="m148.62,198.38c-.24,0-.49,0-.73,0,.24,0,.49,0,.73,0Z"/>
    <path class="cls-1" d="m150.05,198.38c-.24,0-.49,0-.73,0,.24,0,.49,0,.73,0Z"/>
    <path class="cls-1" d="m151.48,198.38c-.24,0-.49,0-.73,0,.24,0,.49,0,.73,0Z"/>
    <path class="cls-1" d="m152.91,198.38c-.24,0-.49,0-.73,0,.24,0,.49,0,.73,0Z"/>
    <path class="cls-1" d="m154.34,198.38c-.24,0-.49,0-.73,0,.24,0,.49,0,.73,0Z"/>
    <path class="cls-1" d="m155.77,198.38c-.24,0-.49,0-.73,0,.24,0,.49,0,.73,0Z"/>
    <path class="cls-1" d="m157.2,198.38c-.24,0-.49,0-.73,0,.24,0,.49,0,.73,0Z"/>
    <path class="cls-1" d="m122.88,198.38c-.24,0-.49,0-.73,0,.24,0,.49,0,.73,0Z"/>
    <path class="cls-1" d="m161.49,198.38c-.24,0-.49,0-.73,0,.24,0,.49,0,.73,0Z"/>
    <path class="cls-1" d="m162.92,198.38c-.24,0-.49,0-.73,0,.24,0,.49,0,.73,0Z"/>
    <path class="cls-1" d="m164.35,198.38c-.24,0-.49,0-.73,0,.24,0,.49,0,.73,0Z"/>
    <path class="cls-1" d="m115.73,198.37c-.24,0-.49,0-.73,0,.24,0,.49,0,.73,0Z"/>
    <path class="cls-1" d="m92.85,198.38c-.24,0-.49,0-.73,0,.24,0,.49,0,.73,0Z"/>
    <path class="cls-1" d="m91.42,198.38c-.24,0-.49,0-.73,0,.24,0,.49,0,.73,0Z"/>
    <path class="cls-1" d="m202.96,198.38c-.24,0-.49,0-.73,0,.24,0,.49,0,.73,0Z"/>
    <path class="cls-1" d="m204.39,198.38c-.24,0-.49,0-.73,0,.24,0,.49,0,.73,0Z"/>
    <path class="cls-1" d="m89.99,198.38c-.24,0-.49,0-.73,0,.24,0,.49,0,.73,0Z"/>
    <path class="cls-1" d="m88.56,198.38c-.24,0-.49,0-.73,0,.24,0,.49,0,.73,0Z"/>
    <path class="cls-1" d="m234.42,198.38c-.24,0-.49,0-.73,0,.24,0,.49,0,.73,0Z"/>
    <path class="cls-1" d="m87.13,198.38c-.24,0-.49,0-.73,0,.24,0,.49,0,.73,0Z"/>
    <path class="cls-1" d="m85.7,198.38c-.24,0-.49,0-.73,0,.24,0,.49,0,.73,0Z"/>
    <path class="cls-1" d="m84.27,198.38c-.24,0-.49,0-.73,0,.24,0,.49,0,.73,0Z"/>
    <path class="cls-1" d="m82.84,198.38c-.24,0-.49,0-.73,0,.24,0,.49,0,.73,0Z"/>
    <path class="cls-1" d="m258.73,198.36c-.24,0-.49,0-.73,0,.24,0,.49,0,.73,0Z"/>
    <path class="cls-1" d="m260.16,198.37c-.24,0-.49,0-.73,0,.24,0,.49,0,.73,0Z"/>
    <path class="cls-1" d="m261.59,198.38c-.24,0-.49,0-.73,0,.24,0,.49,0,.73,0Z"/>
    <path class="cls-1" d="m79.98,198.38c-.24,0-.49,0-.73,0,.24,0,.49,0,.73,0Z"/>
    <path class="cls-1" d="m78.55,198.38c-.24,0-.49,0-.73,0,.24,0,.49,0,.73,0Z"/>
    <path class="cls-1" d="m273.03,198.38c-.24,0-.49,0-.73,0,.24,0,.49,0,.73,0Z"/>
    <path class="cls-1" d="m274.46,198.38c-.24,0-.49,0-.73,0,.24,0,.49,0,.73,0Z"/>
    <path class="cls-1" d="m275.89,198.38c-.24,0-.49,0-.73,0,.24,0,.49,0,.73,0Z"/>
    <path class="cls-1" d="m277.32,198.38c-.24,0-.49,0-.73,0,.24,0,.49,0,.73,0Z"/>
    <path class="cls-1" d="m278.75,198.38c-.24,0-.49,0-.73,0,.24,0,.49,0,.73,0Z"/>
    <path class="cls-1" d="m280.18,198.38c-.24,0-.49,0-.73,0,.24,0,.49,0,.73,0Z"/>
    <path class="cls-1" d="m77.12,198.38c-.24,0-.49,0-.73,0,.24,0,.49,0,.73,0Z"/>
    <path class="cls-1" d="m176.45,267.02c.13-.28.26-.56.39-.84-.13.28-.26.56-.39.84Z"/>
    <path class="cls-1" d="m226.46,131.78c0-.23-.02-.45-.03-.68,0,.23.02.45.03.68Z"/>
    <path class="cls-1" d="m59.96,198.38c-.24,0-.49,0-.73,0,.24,0,.49,0,.73,0Z"/>
    <path class="cls-1" d="m58.53,198.38c-.24,0-.49,0-.73,0,.24,0,.49,0,.73,0Z"/>
    <path class="cls-1" d="m57.1,198.38c-.24,0-.49,0-.73,0,.24,0,.49,0,.73,0Z"/>
    <path class="cls-1" d="m118.24,146.38c-.25,0-.5,0-.75,0,.25,0,.5,0,.75,0Z"/>
    <path class="cls-1" d="m119.67,146.38c-.25,0-.5,0-.75,0,.25,0,.5,0,.75,0Z"/>
    <path class="cls-1" d="m235.5,146.39c-.25,0-.49,0-.74,0,.25,0,.49,0,.74,0Z"/>
    <path class="cls-1" d="m204.8,96.7c-.14-.21-.28-.42-.42-.63.14.21.28.42.42.63Z"/>
    <path class="cls-1" d="m43.54,150.64c.22.06.44.12.67.18-.22-.06-.44-.12-.67-.18Z"/>
    <path class="cls-1" d="m197.58,150.84c.25,0,.49,0,.74,0-.25,0-.49,0-.74,0Z"/>
    <path class="cls-1" d="m267,170.75c0-.24,0-.47,0-.71,0,.24,0,.47,0,.71Z"/>
    <path class="cls-1" d="m297.66,236.74c.26,0,.52,0,.77,0-.26,0-.52,0-.77,0Z"/>
    <path class="cls-1" d="m154.66,236.74c.26,0,.52,0,.77,0-.26,0-.52,0-.77,0Z"/>
    <path class="cls-1" d="m202.32,179.33c0-.24,0-.48,0-.71,0,.24,0,.48,0,.71Z"/>
    <path class="cls-1" d="m125.74,198.38c-.24,0-.49,0-.73,0,.24,0,.49,0,.73,0Z"/>
    <path class="cls-1" d="m77.44,236.73c.14,0,.28,0,.43,0-.14,0-.28,0-.43,0Z"/>
    <path class="cls-1" d="m146.09,150.86c.13,0,.26,0,.39,0-.13,0-.26,0-.39,0Z"/>
    <path class="cls-3" d="m314.5,236.53c.13-.1.27-.21.4-.31-.13.1-.27.21-.4.31Z"/>
    <path class="cls-1" d="m128.39,177.16c.02.15.05.3.07.44-.05-.1-.1-.19-.13-.29-.01-.04.04-.1.06-.15Z"/>
    <path class="cls-1" d="m54.56,236.72c.14,0,.28,0,.43.01-.14,0-.28,0-.43-.01Z"/>
    <path class="cls-1" d="m55.98,236.74c.14,0,.29,0,.43,0-.14,0-.29,0-.43,0Z"/>
    <path class="cls-1" d="m167.56,177.21c-.13-.13-.25-.26-.38-.38.13.13.25.26.38.38Z"/>
    <path class="cls-1" d="m78.86,236.74c.14,0,.28,0,.43,0-.14,0-.28,0-.43,0Z"/>
    <path class="cls-1" d="m127.81,176.9c.15.04.3.08.45.12-.15-.04-.3-.08-.45-.12Z"/>
    <path class="cls-1" d="m151.79,236.72c.14,0,.28,0,.43,0-.14,0-.28,0-.43,0Z"/>
    <path class="cls-1" d="m153.22,236.74c.14,0,.28,0,.43,0-.14,0-.28,0-.43,0Z"/>
    <path class="cls-1" d="m181.83,236.72c.14,0,.28,0,.43.01-.14,0-.28,0-.43-.01Z"/>
    <path class="cls-1" d="m183.25,236.73c.14,0,.29,0,.43,0-.14,0-.29,0-.43,0Z"/>
    <path class="cls-1" d="m112.23,176.46c.03.09.07.17.08.26,0,.03-.05.08-.09.11,0-.13,0-.25,0-.38Z"/>
    <path class="cls-1" d="m267.62,236.72c.14,0,.28,0,.43,0-.14,0-.28,0-.43,0Z"/>
    <path class="cls-1" d="m269.05,236.73c.14,0,.29,0,.43,0-.14,0-.29,0-.43,0Z"/>
    <path class="cls-1" d="m263.81,178.6c.02.09.06.17.06.26,0,.03-.06.07-.09.11,0-.12.02-.24.03-.37Z"/>
    <path class="cls-1" d="m296.22,236.73c.14,0,.29,0,.43,0-.14,0-.29,0-.43,0Z"/>
    <path class="cls-1" d="m128.21,173.96c-.11.03-.23.06-.34.08.11-.06.22-.09.34-.08Z"/>
    <path class="cls-1" d="m126.46,174.04c-.13,0-.25,0-.38,0,.13,0,.25,0,.38,0Z"/>
    <path class="cls-1" d="m120.02,174.03c-.13,0-.25,0-.38,0,.13,0,.25,0,.38,0Z"/>
    <path class="cls-1" d="m78.54,173.26c-.07.13-.14.27-.21.4.07-.13.14-.27.21-.4Z"/>
    <path class="cls-1" d="m245.15,179.63c0,.15,0,.3,0,.45,0-.15,0-.3,0-.45Z"/>
    <path class="cls-1" d="m173.43,181.88c0-.15,0-.31,0-.46,0,.15,0,.31,0,.46Z"/>
    <path class="cls-1" d="m295.06,166.49c.07.1.07.2,0,.3-.03-.07-.06-.14-.07-.21,0-.02.05-.06.08-.09Z"/>
    <path class="cls-1" d="m152.23,165.73c.03.09.07.17.09.26,0,.04-.04.08-.07.13,0-.13-.01-.26-.02-.39Z"/>
    <path class="cls-1" d="m152.56,164.78c-.04.12-.11.2-.23.25.08-.08.15-.17.23-.25Z"/>
    <path class="cls-1" d="m237.97,150.85c.13,0,.26,0,.4,0-.13,0-.26,0-.4,0Z"/>
    <path class="cls-1" d="m203.29,150.84c.13,0,.26,0,.4,0-.13,0-.26,0-.4,0Z"/>
    <path class="cls-1" d="m284.1,187.56c.08.12.15.23.23.35-.08-.12-.15-.23-.23-.35Z"/>
    <path class="cls-1" d="m43.54,146.45c-.12.13-.23.27-.35.4.12-.13.23-.27.35-.4Z"/>
    <path class="cls-1" d="m91.41,188.56c.12,0,.23-.01.35-.02-.12,0-.23.01-.35.02Z"/>
    <path class="cls-1" d="m210.89,261.58c-.14.09-.29.18-.43.27.14-.09.29-.18.43-.27Z"/>
    <path class="cls-1" d="m61.4,198.39c-.13,0-.26,0-.39,0,.13,0,.26,0,.39,0Z"/>
    <path class="cls-3" d="m315.16,199.37c-.11-.12-.23-.24-.34-.35.11,0,.23,0,.34,0,0,.12,0,.24,0,.36Z"/>
    <path class="cls-4" d="m315.16,199.01c-.11,0-.23,0-.34,0-.02-.11-.02-.22,0-.32.12.11.23.21.35.32Z"/>
    <path class="cls-1" d="m176.84,266.2c.12-.14.25-.29.37-.43-.12.14-.25.29-.37.43Z"/>
    <path class="cls-1" d="m62.83,198.39c-.13,0-.26,0-.39,0,.13,0,.26,0,.39,0Z"/>
    <path class="cls-1" d="m64.26,198.39c-.13,0-.26,0-.39,0,.13,0,.26,0,.39,0Z"/>
    <path class="cls-1" d="m263.03,198.38c-.13,0-.26,0-.39,0,.13,0,.26,0,.39,0Z"/>
    <path class="cls-1" d="m81.42,198.38c-.13,0-.26,0-.39,0,.13,0,.26,0,.39,0Z"/>
    <path class="cls-1" d="m131.59,128.59c-.02.11-.04.22-.06.33,0-.12.01-.23.06-.33Z"/>
    <path class="cls-1" d="m130.02,127.84c.13-.09.25-.18.38-.27-.13.09-.25.18-.38.27Z"/>
    <path class="cls-1" d="m238.72,198.39c-.13,0-.26,0-.39,0,.13,0,.26,0,.39,0Z"/>
    <path class="cls-1" d="m207.26,198.38c-.13,0-.26,0-.39,0,.13,0,.26,0,.39,0Z"/>
    <path class="cls-1" d="m238.16,270.52s-.03,0-.03,0c0,0,.03,0,.03,0Z"/>
    <path class="cls-1" d="m254.06,271.56c.12-.13.25-.26.37-.39-.12.13-.25.26-.37.39Z"/>
    <path class="cls-1" d="m205.83,198.38c-.13,0-.26,0-.39,0,.13,0,.26,0,.39,0Z"/>
    <path class="cls-1" d="m135.76,198.4c-.13,0-.26,0-.39,0,.13,0,.26,0,.39,0Z"/>
    <path class="cls-1" d="m167.9,150.83c.13,0,.26,0,.39,0-.13,0-.26,0-.39,0Z"/>
    <path class="cls-1" d="m127.5,150.83c.13,0,.26,0,.4,0-.13,0-.26,0-.4,0Z"/>
    <path class="cls-1" d="m112.21,178.6c.03.09.07.17.08.26,0,.03-.05.08-.07.12,0-.13,0-.25,0-.38Z"/>
    <path d="m270.35,230.8c-1.72,0-3.1.14-4.42-.07-.55-.08-1.36-.85-1.41-1.37-.56-5.07-.98-10.16-1.44-15.24l-.45-.15c-1.43,2.8-2.89,5.59-4.29,8.41-1,2.01-1.81,4.12-2.92,6.07-.47.83-1.42,1.55-2.32,1.87-.31.11-1.27-1.06-1.65-1.79-2-3.85-3.91-7.75-5.87-11.62-.39-.77-.9-1.49-1.58-2.6-.32.76-.6,1.13-.63,1.52-.38,4.46-.78,8.92-1.06,13.39-.13,2.05-1.56,1.46-2.7,1.59-1.29.15-1.77-.48-1.62-1.66.36-2.81.75-5.62,1.14-8.43.69-5.01,1.35-10.03,2.13-15.02.1-.62.8-1.59,1.24-1.6.74-.02,1.85.39,2.19.98,2.05,3.48,3.96,7.04,5.84,10.62,1.16,2.19,2.19,4.44,3.5,7.14.68-1.05,1.13-1.62,1.46-2.25,2.75-5.14,5.51-10.27,8.18-15.44.79-1.53,2.03-1.11,3.68-1.11.98,8.8,1.97,17.63,3,26.77Z"/>
    <path d="m181.4,203.95c3.96.26,7.77,1.05,9.88,4.82.93,1.67,1.44,3.72,1.58,5.65.16,2.25-.07,4.59-.54,6.8-1.09,5.07-5.44,9.34-11.22,9.31-3.19.03-6.38.06-9.57.08-.38,0-.76,0-1.14,0-.1.01-.19.03-.29.04-.66.02-1.33.04-1.99.05,0,0-.04-.08-.04-.08l-.09.03c-.23-.56-.66-1.13-.66-1.69-.03-7.87,0-15.74.03-23.62,0-.5.22-1,.34-1.51,0,0,.06.03.06.03v-.07c1.29.02,2.58.03,3.88.05,0,0,.06.06.06.06l.07-.06c.3.02.6.03.89.05.18,0,.36.01.55.02.42.01.84.02,1.27.03.29,0,.58,0,.87,0,.29,0,.59-.02.88-.03.19,0,.39-.02.58-.03,1.48.01,2.95.03,4.42.04,0,0,.09.05.09.05l.1-.03Zm-8.83,25.23c2.18-.19,4.05-.35,5.92-.51,3.75-.32,6.6-2.05,8-5.58,1.18-2.96,1.48-6.07,1.14-9.31-.38-3.71-2.06-6.3-5.65-7.33-2.52-.72-5.06-1.32-7.78-.73-1.24.27-1.69.59-1.67,1.89.07,4.52.03,9.04.03,13.55,0,2.54,0,5.09,0,8.02Z"/>
    <path d="m135.26,220.08c-1.19,3.25-2.32,6.36-3.48,9.46-.43,1.15-3.84,1.9-4.66.99-.22-.25-.22-.9-.07-1.24,3.47-7.72,6.98-15.43,10.48-23.13.22-.49.4-1.08.79-1.38.66-.5,1.48-1.14,2.2-1.1.57.03,1.31.9,1.61,1.55,2.78,6.23,5.48,12.49,8.21,18.74.71,1.63,1.5,3.24,2.2,4.88.22.52.28,1.11.48,1.95-1.67,0-3.15.14-4.58-.07-.6-.09-1.34-.79-1.59-1.4-1.07-2.49-2.03-5.04-2.92-7.6-.41-1.2-1.04-1.73-2.34-1.68-2.08.08-4.16.02-6.34.02Zm3.93-9.14c-1.04,2.37-1.89,4.25-2.65,6.16-.11.26.22,1.01.36,1.02,1.52.04,3.04.01,4.56-.1.13,0,.41-.76.29-1.04-.74-1.89-1.57-3.74-2.56-6.05Z"/>
    <path d="m52.3,230.79c.2-.87.26-1.56.53-2.17,3.43-7.72,6.87-15.45,10.4-23.13.36-.79,1.32-1.78,2.03-1.8.72-.02,1.82.88,2.16,1.65,2.96,6.67,5.78,13.41,8.68,20.12.54,1.25,1.25,2.42,1.86,3.64.57,1.13.18,1.69-1.06,1.7-.06,0-.12,0-.18,0-4.54-.15-3.58.91-5.35-3.65-.8-2.05-1.63-4.09-2.56-6.08-.21-.45-.89-.87-1.41-.94-1.05-.14-2.14-.04-3.21-.04-3.85,0-4.18.29-5.32,4.07-.55,1.8-1.09,3.63-1.9,5.32-.3.63-1.32,1.04-2.09,1.27-.7.21-1.51.04-2.55.04Zm12.08-19.8c-.98,2.32-1.79,4.08-2.44,5.9-.13.35.29,1.3.53,1.32,1.29.13,2.6.12,3.9.02.28-.02.75-.65.74-.98-.14-2.28-1.42-4.03-2.72-6.26Z"/>
    <path d="m104.71,231.51c-4.11.39-7.7-1.39-10.82-4.42-2.79-2.71-3.42-6.07-3.19-9.79.43-6.85,4.9-11.68,9.58-12.54,3.02-.56,6.19-.45,9.29-.39,1.61.03,3.21.56,4.8.93,1.89.44.73,1.68.49,2.5-.3,1.03-1.07,1.56-2.21.84-.99-.63-2.03-1.19-3.02-1.81-5.35-3.34-11.96,1.12-13.13,6.64-.81,3.79-.69,7.45,1.22,10.98,2.27,4.18,7.42,6.18,11.79,4.39,1.15-.47,2.21-1.18,3.38-1.59.6-.21,1.36.02,2.04.05-.28.71-.38,1.84-.88,2.06-1.97.87-4.05,1.54-6.13,2.11-.89.24-1.89.04-3.2.04Z"/>
    <path d="m292.38,220.94c-.44-1.19-.72-2.48-1.35-3.56-2.49-4.25-5.1-8.43-7.68-12.66,3.78-1.24,5.52-.58,7.38,2.66,1.54,2.68,3.08,5.35,4.82,8.36.93-1.65,1.77-3.1,2.56-4.58.7-1.31,1.36-2.64,2.03-3.97,1.59-3.15,2.37-3.49,6.25-2.56-.29.54-.52,1.05-.81,1.52-2.23,3.52-4.57,6.97-6.66,10.57-.74,1.27-1.11,2.88-1.22,4.36-.19,2.55-.1,5.12-.03,7.68.04,1.54-.54,2.2-2.1,2.06-.95-.08-1.9-.03-2.86-.03-.11-.18-.22-.35-.34-.53.05-2.93.1-5.85.14-8.78-.04-.18-.09-.36-.13-.54Z"/>
    <path d="m221.89,204.1c.73.3,1.85.41,2.09.93.55,1.2-.32,1.93-1.7,1.83-2.41-.19-4.83-.31-7.25-.32-.45,0-1.29.64-1.29.99-.02,2.3.15,4.6.23,6.9.03,1.08.56,1.44,1.59,1.38,1.77-.1,3.55-.19,5.32-.17.69,0,1.48.19,2.03.58.25.17.22,1.34-.04,1.5-.48.3-1.22.28-1.84.25-2.24-.13-4.47-.32-6.98-.51-.13,3.39-.32,6.61-.29,9.83,0,.47,1.05,1.32,1.62,1.33,2.41.04,4.82-.21,7.24-.26.54-.01,1.29.17,1.57.54.22.29-.14,1.01-.25,1.54-.2.04-.4.09-.6.13-.38.04-.76.07-1.14.11-3.54-.02-7.09-.03-10.63-.05-.27,0-.53.02-.79.02-.09,0-.18,0-.27,0-.31.01-.62.02-.92.04,0,0-.05-.08-.05-.08l-.09.03c-.26-.69-.74-1.38-.74-2.07-.06-7.66-.06-15.33-.04-22.99,0-.43.25-.87.39-1.3.12,0,.21-.04.27-.15.62,0,1.24-.02,1.87-.03.11,0,.22,0,.33,0,3.34,0,6.69,0,10.03,0,.12,0,.23,0,.35,0Z"/>
    <path class="cls-1" d="m211.57,230.64c3.54.02,7.09.03,10.63.05-3.54-.02-7.09-.03-10.63-.05Z"/>
    <path class="cls-1" d="m171.53,230.61c3.19-.03,6.38-.06,9.57-.08-3.19.03-6.38.06-9.57.08Z"/>
    <path class="cls-1" d="m175.33,203.94c-.29,0-.58,0-.87,0,.29,0,.58,0,.87,0Z"/>
    <path class="cls-1" d="m223.35,230.58c.2-.04.4-.09.6-.13-.2.04-.4.09-.6.13Z"/>
    <path class="cls-1" d="m173.19,203.91c-.18,0-.37-.01-.55-.02.18,0,.36.01.55.02Z"/>
    <path class="cls-1" d="m176.79,203.89c-.19,0-.39.02-.58.03.2,0,.39-.02.58-.03Z"/>
    <path class="cls-1" d="m292.36,230.26c.11.18.22.35.34.53-.11-.18-.22-.35-.34-.53Z"/>
    <path class="cls-1" d="m210.51,230.67c.09,0,.18,0,.27,0,0,0-.13.05-.13.05l-.13-.05Z"/>
    <polygon class="cls-1" points="209.45 230.65 209.54 230.63 209.59 230.71 209.5 230.74 209.45 230.65"/>
    <path class="cls-1" d="m170.1,230.65c.1-.01.19-.03.29-.04,0,0-.14.07-.14.07l-.15-.03Z"/>
    <polygon class="cls-1" points="167.98 230.65 168.07 230.62 168.11 230.7 168.03 230.73 167.98 230.65"/>
    <path class="cls-2" d="m292.38,220.94c.04.18.09.36.13.54-.04-.18-.09-.36-.13-.54Z"/>
    <path class="cls-1" d="m221.89,204.1c-.12,0-.23,0-.35,0,.12,0,.23,0,.35,0Z"/>
    <path class="cls-1" d="m211.52,204.11c-.11,0-.22,0-.33,0,.11-.07.22-.07.33,0Z"/>
    <path class="cls-1" d="m209.32,204.15c-.06.11-.15.15-.27.15.09-.05.18-.1.27-.15Z"/>
    <polygon class="cls-1" points="181.4 203.95 181.3 203.97 181.22 203.93 181.31 203.86 181.4 203.95"/>
    <polygon class="cls-1" points="171.76 203.85 171.69 203.9 171.63 203.84 171.7 203.78 171.76 203.85"/>
    <polygon class="cls-1" points="167.74 203.8 167.75 203.87 167.69 203.84 167.74 203.8"/>
    <path class="cls-1" d="m143.92,128.3c.01-.27.03-.54.04-.8.54.01,1.12-.11,1.6.06,1.03.38,2.01.9,3,1.37.13-.2.26-.4.39-.6-.83-.63-1.66-1.26-2.49-1.89.63-.11,1.25-.22,2.11-.38-.74-1.14-1.43-2.19-2.11-3.23.41-.09.81-.17,1.22-.26.08-.23.15-.46.23-.68-.83-.5-1.67-1-2.5-1.51-.13-.62-.26-1.25-.38-1.87.23-.22.45-.45.68-.67,1.55-.33,3.1-.65,4.65-.98.11.15.21.31.32.46-.79.7-1.58,1.41-2.55,2.28.19.25.52.69.86,1.13-.21,2.05,1.24,1.77,2.49,1.77-.02.61-.03,1.23-.05,1.84-1.34-.1-2.23.16-1.41,1.78.13.1.26.19.39.29h.02c.24.13.47.24.71.36,0,0,.01,0,.01,0,0,.6,0,1.2,0,1.81,0,0-.02.03-.02.03-.14.04-.19.13-.16.27-.02.11-.02.22-.02.34-.89.62-1.89,1.14-2.65,1.9-.53.54-.74,1.4-1.09,2.12-.62.13-1.24.26-1.86.39-.1-.13-.2-.27-.3-.4-.11-.12-.21-.23-.32-.35-.14-.23-.29-.47-.43-.7.47-1.34.58-2.65-.37-3.85Z"/>
    <path class="cls-1" d="m184.78,132.54c.23,3.13.4,6.26.72,9.38.07.7.68,1.34,1.03,2.01-.49.47-1.04.89-1.44,1.42-.57.74-1.01.71-1.47-.06.63-1.44-.18-2.47-1-3.5-.05-.31-.1-.63-.14-.94-.08-.16-.17-.33-.25-.49-.5-2.85-1.07-5.7-.04-8.55.86.25,1.73.49,2.59.74Z"/>
    <path class="cls-1" d="m155,127.14c0,2.15,0,4.3,0,6.46,0,.82.04,1.65.06,2.47-.24.64-.65,1.27-.69,1.92-.18,2.68-.25,5.37-.37,8.06-.26,0-.53,0-.79,0-.21-2.38-.56-4.76-.59-7.14-.02-1.66.38-3.33.6-5,0-1.35.12-2.72-.07-4.05-.14-.95-.39-2.34-2.01-1.31,0-.6,0-1.2,0-1.81.21.03.42.06.63.09.92,1.78,2.16.15,3.23.3Z"/>
    <path class="cls-1" d="m184,111.77c.6-.26,1.2-.52,1.81-.78.23.06.46.11.7.17.32.89.43,2.16,1.97,1.08-.11-.32-.3-.6-.28-.86.03-.41.11-.91.37-1.17.13-.13.81.06,1.06.3,1.03.98,1.98,2.02,2.96,3.05-.45.41-.94,1.2-1.35,1.16-2.29-.22-4.71,1.47-6.87-.44-.12-.36-.24-.72-.36-1.07,0-.47,0-.95,0-1.42Z"/>
    <path class="cls-1" d="m196.88,113.9c.48.24.95.48,1.43.71-.01,1.04-.01,2.07,1.43,2.14,0,.12.01.24.02.36-1.39-.11-1.51.8-1.48,1.84-.47,0-.94-.02-1.41-.02-.09-.46-.1-.97-.31-1.38-.18-.37-.58-.63-.89-.93-.37.44-.73.87-1.1,1.31.44.36.88.71,1.32,1.07-.39.31-.77.63-1.16.94-.23.05-.47.09-.7.14-.25-.03-.51-.06-.76-.09-.1-.06-.21-.11-.31-.17.12-1.37-.05-2.55-1.81-2.65-.12-.13-.25-.27-.37-.4.97-.85,1.93-1.71,2.9-2.56.38.17.8.27,1.12.51,1.15.84,1.81.57,2.07-.81Z"/>
    <path class="cls-1" d="m180.11,129.29c-.11,3.33-.23,6.66-.34,10-1.1.36-2.2.72-3.29,1.08-.23,0-.46,0-.69-.01,0-2.27.01-4.55.02-6.82.23.37.47.74.7,1.11,0,1.07-.04,2.14.04,3.2.02.33.39.63.6.94.25-.33.7-.65.72-.99.07-1.06-.02-2.13-.05-3.2.01-1.75.03-3.5.04-5.25.6-.15,1.21-.29,1.81-.44.15.13.29.25.44.38Z"/>
    <path class="cls-1" d="m169.01,134.18c-.86-1.43-1.93-1.62-3.37-.77-.39.23-1.1-.09-1.66-.15-.21-1.13-.86-1.54-2-1.35-.49.08-1.02-.08-1.53-.13,0-.35,0-.7,0-1.06l.03-.36c-.15-1.53-.31-3.07-.46-4.6,1.03-.08,1.46.47,1.48,1.43.24,1.49.81,2.68,2.51,2.9.27,2.04.53,2.09,2.89.63.35,0,.69.01,1.04.02.36,1.15.72,2.3,1.07,3.46Z"/>
    <path class="cls-1" d="m180.74,103.2c.21,1.86-1.52,2.23-2.46,3.2-1.49.14-1.62,1.34-1.88,2.43-.12.11-.23.22-.35.33-.79.02-1.57.05-2.36.07,0-.35-.01-.69-.02-1.04.09-.72.18-1.43.27-2.15.14-.21.28-.42.42-.62,1.32.03,2.43-.04,3.29-1.45.41-.66,1.9-.66,2.9-.96,0,0,.15,0,.15,0,0,.07,0,.13.04.19Z"/>
    <path class="cls-1" d="m200.41,132.87c-.12-2.26-.24-4.51-.36-6.77.73-.38,1.46-.76,2.19-1.14.36.25.72.49,1.08.73,0,.12,0,.25,0,.37-.11,1.17-.22,2.34-.33,3.51-.03,1.74-1.68,2.22-2.57,3.29Z"/>
    <path class="cls-1" d="m171.9,145.35c-.02-1.54-.03-3.08-.05-4.62.12-1.56.24-3.12.36-4.67,1.42.4,1.09,1.51.96,2.48-.08.61-.34,1.2-.57,1.99,1.11-.07,1.97-.12,2.84-.17-.32.61-.7,1.2-.93,1.85-.15.43-.09.93-.13,1.41.42-.21.88-.36,1.26-.63.32-.22.56-.57.83-.86-.64,2.52-.64,2.47-3.19,2.35-.45-.02-.92.57-1.38.88Z"/>
    <path class="cls-1" d="m161.5,127.18c-.02-.96-.45-1.51-1.48-1.43-.36.11-.71.22-1.07.32-.48,0-.96,0-1.44,0,.12-.46.23-.92.35-1.38.24-.01.49.03.7-.05.46-.16.9-.38,1.36-.57-.22-.38-.41-.79-.66-1.15-.2-.28-.47-.51-.91-.99.68-.51,1.29-.97,1.91-1.44.37.57.83,1.1,1.08,1.72.7,1.73,1.31,3.49,1.96,5.23-.6-.08-1.2-.17-1.79-.25Z"/>
    <path class="cls-1" d="m191.61,132.47c-.5-1.05-1-2.1-1.5-3.16.12-1.5,1.01-1.53,2.12-1.11,1.76-2.76,2.91-3.43,4.97-2.93-2.24.4-3.68,2.37-3.65,4.68.01.83-.44,1.68-.69,2.51-.42,0-.83,0-1.25,0Z"/>
    <path class="cls-1" d="m190.8,116.77c.12.13.25.27.37.4-.27.65-.54,1.31-.81,1.96-.47.4-.94.8-1.42,1.21-1.93-.02-2.89-1.23-3.51-2.86,0-.24,0-.47,0-.71.36,0,.72,0,1.07,0,.89,1.37,1.36.57,1.79-.36.24,0,.48,0,.71,0,.36.12.72.24,1.07.35.24,0,.48,0,.71,0Z"/>
    <path class="cls-1" d="m146.46,126.43c.83.63,1.66,1.26,2.49,1.89-.13.2-.26.4-.39.6-1-.46-1.97-.99-3-1.37-.48-.17-1.06-.05-1.6-.06-1.47-.45-1.27-1.74-1.43-2.85,1.55-1.44,1.94-1.36,2.74.43.24.53.79.91,1.19,1.36Z"/>
    <path class="cls-1" d="m176.88,101.04c-.43.56-.85,1.11-1.28,1.67-.31-.47-.53-1.06-.96-1.37-.63-.46-1.41-.69-2.11-1.06-.44-.23-.84-.54-1.26-.82.45-.15.88-.4,1.34-.44.86-.08,1.75-.16,2.59,0,.61.11,1.14.61,1.71.93-.01.36-.02.72-.03,1.08Z"/>
    <path class="cls-1" d="m172.18,111.44c-.2.37-.33,1-.61,1.07-.97.26-1.98.33-2.98.47,0-.42,0-.83,0-1.25.41-.39,1.07-.73,1.18-1.19.23-1,.19-2.07.25-3.11.4-.46.81-.93,1.21-1.39.18,0,.36,0,.55,0l.08.69c-1.11,1.63-1,3.13.33,4.7Z"/>
    <path class="cls-1" d="m143.56,118.55c-.56.76-1.14,1.5-1.67,2.28-.39.57-.7,1.2-1.04,1.81-.33-.62-.73-1.22-.96-1.87-.17-.48-.33-1.16-.12-1.54.28-.52.87-.99,1.43-1.22.72-.3,1.55-.36,2.33-.52,0,.36.02.72.03,1.08Z"/>
    <path class="cls-1" d="m196.87,118.93c.47,0,.94.02,1.41.02.43.19.87.36,1.29.56.59.29,1.28.51,1.71.97.19.2-.16.91-.26,1.38-.66-.22-1.32-.45-1.98-.65-.73-.21-1.47-.38-2.2-.56-.36-.2-.73-.4-1.09-.59h-.69c-.11-.04-.21-.08-.32-.13.39-.31.77-.63,1.16-.94.32-.02.65-.04.97-.06Z"/>
    <path class="cls-1" d="m165.77,103.9c.03.23-.03.52.09.68,1.03,1.4.95,2.84.22,4.32-.69-.11-1.38-.22-2.07-.34.81-1.45-.55-3.39,1.07-4.66.13,0,.27-.02.4-.02.09,0,.19,0,.28.01Z"/>
    <path class="cls-1" d="m195.73,121.66c-.55.68-1.03,1.44-1.67,2.02-.64.59-1.4,1.06-2.18,1.46-.41.21-.95.16-1.43.22.05-.47.03-.96.17-1.39.25-.75.62-1.47.93-2.21.21.13.43.26.64.39.29,1.09.92,1.23,1.81.65.58-.38,1.15-.77,1.72-1.15Z"/>
    <path class="cls-1" d="m172.21,136.07c-.12,1.56-.24,3.12-.36,4.67-.6-1.28-1.23-2.55-1.79-3.85-.2-.47-.24-1.02-.35-1.53.12-.12.23-.24.35-.35.72.35,1.43.71,2.15,1.06Z"/>
    <path class="cls-1" d="m151.14,101.43c.58.11,1.16.22,1.75.34.14.46.27.93.41,1.39.43,1.15,1.28,2.22.66,3.56-.12-.01-.24,0-.35-.04-.83-.37-2.68-4.32-2.47-5.25Z"/>
    <path class="cls-1" d="m140.06,133.9c-.01-2.38-.03-4.76-.04-7.14,0-.11,0-.21,0-.32.11-.24.22-.48.33-.73.25-.23.51-.46.76-.69,0,2.41.05,4.82-.07,7.22-.03.57-.65,1.11-.99,1.66Z"/>
    <path class="cls-1" d="m176.88,101.04c.01-.36.02-.72.03-1.08.72-.15,1.45-.28,2.16-.46.47-.12,1.04-.53,1.37-.38.35.16.65.83.64,1.28-.01.87-.25,1.74-.39,2.61,0,0-.15,0-.15,0-1.07-.94-1.95-2.23-3.67-1.95Z"/>
    <path class="cls-1" d="m172.18,111.44c-1.33-1.57-1.44-3.07-.33-4.7.61.48,1.22.97,1.82,1.45,0,.35.01.69.02,1.04-.02.37-.05.74-.07,1.1-.23.24-.47.48-.7.72-.25.13-.49.26-.74.39Z"/>
    <path class="cls-1" d="m204.39,118.75c-.44.42-.87.85-1.31,1.27-1.11-.97-2.22-1.94-3.33-2.91,0-.12-.01-.24-.02-.36.4-.25.79-.49,1.19-.74.31.14.62.27.93.41.85.77,1.69,1.55,2.54,2.32Z"/>
    <path class="cls-1" d="m135.06,122.13c-.39-.41-.78-.83-1.16-1.24.15-.62.18-1.3.47-1.85.29-.55.83-.98,1.26-1.46.26.63.82,1.32.7,1.88-.2.94-.82,1.79-1.26,2.67Z"/>
    <path class="cls-1" d="m167.26,116.03c.45.36.97.66,1.33,1.1.42.52.75,1.13.99,1.75.04.1-.87.75-.99.66-.67-.48-1.29-1.06-1.8-1.71-.17-.21.02-.72.05-1.09.14-.24.29-.48.43-.72Z"/>
    <path class="cls-1" d="m129.22,122c-.6-.78-1.27-1.33-1.18-1.58.22-.56.82-.96,1.27-1.42.46.45,1.13.84,1.29,1.37.09.3-.69.85-1.39,1.63Z"/>
    <path class="cls-1" d="m161.85,113.16c.67.69,1.34,1.38,2.02,2.07-.12.14-.24.28-.36.42-1.47-1.23-3.96-.96-4.56-3.47.25-.02.49-.04.74-.06.27,1.27,1.27,1.05,2.16,1.05Z"/>
    <path class="cls-1" d="m159,106.73c-.63-.9-1.26-1.79-1.89-2.69,1.02.08,2.05.14,3.07.25.22.02.42.2.62.31-1.36.07-1.89.85-1.8,2.14Z"/>
    <path class="cls-1" d="m159,106.73c-.09-1.29.44-2.07,1.8-2.14.28.53.56,1.05.84,1.58l-2.64.56Z"/>
    <path class="cls-1" d="m153.32,109.62c-1.53.96-2.62,1.65-3.71,2.33-.08-.43-.37-1.13-.21-1.26.77-.6,1.64-1.07,2.52-1.51.19-.09.54.15,1.41.43Z"/>
    <path class="cls-1" d="m159.69,112.12c-.25.02-.49.04-.74.06-.59-.49-1.19-.98-1.78-1.47,1-.15,1.99-.3,2.99-.46,1.88,1.13.08,1.34-.47,1.86Z"/>
    <path class="cls-1" d="m186.46,102.46c-.71-.3-1.42-.6-2.13-.9.25-.08.5-.17.75-.25.66-.3,1.32-.61,1.99-.91.55-.24,1.1-.46,1.66-.69.12.22.25.45.37.67-.88.69-1.75,1.39-2.63,2.08Z"/>
    <path class="cls-1" d="m160.15,110.26c-1,.15-1.99.3-2.99.46-.43-.22-.86-.45-1.29-.68.38-.28.74-.63,1.16-.83.36-.18.81-.19,1.22-.27.48.11.95.21,1.43.32,0,0,.02.02.02.02.15.33.3.66.45.98Z"/>
    <path class="cls-1" d="m171.21,104.92c-.15-1.04.17-1.69,1.34-1.75,1.05-.06,1.53.37,1.41,1.43-.92.11-1.83.22-2.75.33Z"/>
    <path class="cls-1" d="m176.47,142.13c-.27.29-.51.64-.83.86-.38.27-.83.42-1.26.63.03-.47-.03-.98.13-1.41.23-.64.61-1.23.93-1.85.12,0,.23,0,.35-.01.23,0,.46,0,.69.01,0,.59,0,1.17,0,1.76Z"/>
    <path class="cls-1" d="m145.41,120.37c.83.5,1.67,1,2.5,1.51-.08.23-.15.46-.23.68-.41.09-.81.17-1.22.26-.35-.82-.7-1.63-1.05-2.45Z"/>
    <path class="cls-1" d="m160.15,110.26c-.15-.33-.3-.66-.45-.98,1.22.1,1.7.84,1.79,1.99.05.64.23,1.27.35,1.9-.89,0-1.89.23-2.16-1.05.54-.52,2.35-.73.47-1.86Z"/>
    <path class="cls-1" d="m170.01,107.43c-.07,1.04-.02,2.11-.25,3.11-.11.46-.77.8-1.18,1.19.14-.8.2-1.63.45-2.4.22-.67.64-1.26.98-1.89Z"/>
    <path class="cls-1" d="m164.01,108.56c.69.11,1.38.22,2.07.34.15.6.31,1.19.46,1.79-.74-.12-1.48-.24-2.21-.36-.1-.59-.21-1.18-.31-1.77Z"/>
    <path class="cls-1" d="m184.01,113.19c.12.36.24.72.36,1.07-.45.38-.9.77-1.35,1.15-.32-.54-.64-1.08-1.02-1.71.91-.23,1.46-.38,2-.52Z"/>
    <path class="cls-1" d="m203.32,125.7c-.36-.24-.72-.49-1.08-.73.36-.71.72-1.42,1.08-2.13.36.48.71.95,1.07,1.43-.36.48-.71.96-1.07,1.43Z"/>
    <path class="cls-1" d="m171.21,104.92c.92-.11,1.83-.22,2.75-.33.13.27.27.54.4.81-.14.21-.28.42-.42.62-.73,0-1.45,0-2.18,0-.18,0-.37,0-.55,0,0-.37,0-.74,0-1.12Z"/>
    <path class="cls-1" d="m180.11,129.29c-.15-.13-.29-.25-.44-.38.53-.93,1.1-.64,1.42.08.38.85.55,1.8.82,2.71-.37-.33-.8-.61-1.09-1-.31-.42-.48-.94-.71-1.41Z"/>
    <path class="cls-1" d="m177.76,115.44c-.86.48-1.28.92-1.65.87-.37-.04-.68-.57-1.02-.88.32-.27.63-.73.96-.75.4-.02.82.34,1.71.76Z"/>
    <path class="cls-1" d="m166.17,113.12c-1.19-.05-1.66.39-1.12,1.59.19.42.24.9.35,1.35-1.21-1.1-1.17-2.52-1.02-3.97.58-.1,1.16-.19,1.74-.29.02.44.03.88.05,1.32Z"/>
    <path class="cls-1" d="m176.15,95.67c.42-.3.85-.6,1.27-.89.28.66.57,1.32.85,1.98-.59-.24-1.19-.48-1.78-.72-.12-.12-.23-.24-.35-.36,0,0,0,0,0,0Z"/>
    <path class="cls-1" d="m153.95,106.72c.63-1.34-.22-2.41-.66-3.56,1.43.41,1.63,1.61,1.68,2.81.01.24-.66.5-1.02.75Z"/>
    <path class="cls-1" d="m204.39,124.27c-.36-.48-.71-.95-1.07-1.43,0-.24,0-.48,0-.71.55.12,1.1.24,1.65.35.77.91,1.35,1.75-.58,1.79Z"/>
    <path class="cls-1" d="m167.93,130.72c-.35,0-.69-.01-1.04-.02,0-.84,0-1.67,0-3.05.71.67,1.04.98,1.37,1.29.02.12.04.24.06.36,0,.23-.01.46-.02.69-.11.14-.22.28-.33.43,0,.1-.02.21-.04.31Z"/>
    <path class="cls-1" d="m166.13,111.8c-.58.1-1.16.19-1.74.29-.02-.59-.04-1.17-.06-1.76.74.12,1.47.24,2.21.36-.14.37-.27.74-.41,1.11Z"/>
    <path class="cls-1" d="m159.19,99.34c.19.43.38.87.58,1.3-.84.14-1.86.85-2.19-.67.54-.21,1.08-.42,1.62-.63Z"/>
    <path class="cls-1" d="m173.62,110.33c.02-.37.05-.74.07-1.1.79-.02,1.57-.05,2.36-.07-.68.63-1.37,1.25-2.05,1.88,0,0-.17,0-.17,0,0,0-.17,0-.17,0-.01-.24-.02-.47-.03-.71Z"/>
    <path class="cls-1" d="m160.6,98.39c-.54.21-1.08.42-1.62.63-.23-.13-.46-.26-.69-.4,0-.35-.01-.7-.02-1.06.8.14,1.59.28,2.39.42-.02.13-.04.27-.06.4Z"/>
    <path class="cls-1" d="m164.34,102.11c.38.59.77,1.18,1.15,1.77-.13,0-.27.01-.4.02-.5-.7-1-1.41-1.5-2.11,0,0,.08-.07.08-.07.23.13.45.26.68.39Z"/>
    <path class="cls-1" d="m188.3,116.41c-.43.93-.9,1.73-1.79.36.6-.12,1.19-.24,1.79-.36Z"/>
    <path class="cls-1" d="m185.43,116.77c0,.24,0,.47,0,.71-.5-.31-1.01-.62-1.51-.93l.25-.47c.42.23.84.46,1.27.68Z"/>
    <path class="cls-1" d="m159.68,109.25c-.48-.11-.95-.21-1.43-.32.77-1.2,1.13-.58,1.43.32Z"/>
    <path class="cls-1" d="m195.96,121.23c-.07-.39-.14-.78-.2-1.16.36.2.73.4,1.09.6-.29.19-.59.38-.88.57Z"/>
    <path class="cls-1" d="m189.37,121.05c.71.24,1.42.47,2.13.71-.71-.24-1.42-.47-2.13-.71Z"/>
    <path class="cls-1" d="m165.88,94.97c.33-.32.67-.63,1-.95-.01.31-.03.62-.04.94-.32,0-.64,0-.96.01Z"/>
    <path class="cls-1" d="m190.08,116.76c-.36-.12-.72-.24-1.07-.35l1.07.35Z"/>
    <path class="cls-1" d="m173.62,110.33c.01.24.02.47.03.71-.24,0-.49,0-.73,0,.23-.24.47-.48.7-.72Z"/>
    <path class="cls-1" d="m200.05,126.1c-.37-.24-.74-.47-1.11-.71.37.24.74.47,1.11.71Z"/>
    <path class="cls-1" d="m184,89.58c.22-.14.44-.28.66-.43-.22.14-.44.28-.66.43Z"/>
    <path class="cls-1" d="m170.06,135c-.12.12-.23.24-.35.35-.12-.23-.23-.47-.35-.7.23.12.47.23.7.35Z"/>
    <path class="cls-1" d="m203.02,121.75c.09.12.18.24.28.36-.09-.12-.18-.24-.28-.36Z"/>
    <path class="cls-1" d="m140.36,125.71c-.11.24-.22.48-.33.73.11-.24.22-.48.33-.73Z"/>
    <path class="cls-1" d="m164.34,129.95c.1-.23.21-.47.31-.7-.1.23-.21.47-.31.7Z"/>
    <path class="cls-1" d="m167.97,130.41c.11-.14.22-.28.33-.43-.11.14-.22.28-.33.43Z"/>
    <path class="cls-1" d="m183.91,101.71c-.1.1-.2.19-.3.29.1-.1.2-.19.3-.29Z"/>
    <path class="cls-1" d="m176.14,95.67c.12.12.23.24.35.36-.12-.12-.23-.24-.35-.36Z"/>
    <path class="cls-1" d="m176.66,91.6c.01-.08.05-.15.1-.2.14.11.28.22.42.34-.18-.04-.35-.09-.53-.13Z"/>
    <path class="cls-1" d="m166.77,113.63c-.12-.13-.24-.26-.36-.39.12.13.24.26.36.39Z"/>
    <path class="cls-1" d="m168.32,129.3c-.02-.12-.04-.24-.06-.36.04.08.09.15.11.23,0,.03-.04.08-.06.12Z"/>
    <path class="cls-1" d="m198.27,125.3l-.15.03s-.15-.04-.15-.04c.1,0,.2,0,.3.01Z"/>
    <path class="cls-1" d="m151.81,124.71c-.12-.14-.24-.28-.37-.42.12.14.24.28.37.42Z"/>
    <path class="cls-1" d="m189.02,120.69c.12.12.24.24.35.36-.12-.12-.24-.24-.35-.36Z"/>
    <path class="cls-1" d="m199.66,146.03c.05-3.11.08-6.22.17-9.33.02-.69.25-1.38.38-2.07,1.45-.25,2.46.54,3.41,1.46.12,1.07.25,2.14.37,3.21-.07.4-.2.8-.2,1.2-.01,2-.75,4.08.61,5.93-1.58-.13-3.16-.26-4.75-.39Z"/>
    <path class="cls-1" d="m146.11,146.07c-.26-4.16-.51-8.31-.77-12.47.62-.13,1.24-.26,1.86-.39.32,1.43.64,2.87.95,4.3.1,1.34.2,2.68.3,4.02,0,.19.01.38.02.57,0,.26.01.53.02.79,0,.34,0,.68-.01,1.02-.06.38-.12.76-.18,1.14.14.42.28.84.42,1.27-.87-.08-1.74-.17-2.61-.25Z"/>
    <path class="cls-1" d="m214.72,146.11c.04.09.06.19.08.29-.63,0-1.25.01-1.88.02.14-.5.4-1,.4-1.5.02-4.1.03-8.2-.05-12.3-.02-.74-.48-1.48-.74-2.22.72-.26,1.44-.52,2.16-.78.17,1.42.34,2.85.51,4.27-.02.38-.03.75-.05,1.13-.14.93-.29,1.87-.43,2.8-.01.27-.03.54-.04.81.01.11.05.21.11.3-.03.23-.07.45-.1.68-.21,1.85-.44,3.69-.58,5.55-.02.3.39.64.61.96Z"/>
    <path class="cls-1" d="m158.26,135.71c.09,2.77.18,5.54.24,8.3,0,.21-.17.43-.25.65-.21.24-.42.48-.63.72-.08-.11-.15-.22-.23-.33-.04-.49-.07-.99-.11-1.48,0-.12,0-.23,0-.35-.05-1.55-.1-3.09-.16-4.64,0-.25.02-.5.02-.75,0-.35-.01-.7-.02-1.04,0-.25-.01-.5-.02-.75.02-.47.04-.94.06-1.42-.02-.25-.04-.49-.06-.74-.01-.22-.03-.44-.04-.66.07-.24.14-.49.2-.73.27,0,.54.01.81.02.04.47.07.93.11,1.4-.02.04-.06.08-.06.12.01.08.05.16.08.24,0,.24.01.48.02.72,0,.23.02.47.03.7Z"/>
    <path class="cls-1" d="m191.48,146.05c.13-1.61.29-3.23.38-4.84.06-1.11.04-2.23.05-3.34,1.13-.46.94.4,1.03,1.01.2,1.44.42,2.88.62,4.32,0,.26.02.52.03.78.01.58.02,1.17.03,1.75.03.11.04.22.04.33-.73,0-1.45,0-2.18,0Z"/>
    <path class="cls-1" d="m157.29,143.57c.04.49.07.99.1,1.48-.04.34-.09.67-.13,1.01-.14,0-.28,0-.42.01.09-2.49.19-4.99.28-7.48.05,1.55.1,3.09.16,4.64-.03.12-.03.23,0,.35Z"/>
    <path class="cls-1" d="m181.49,145.71c.37-.13.74-.25,1.1-.38-.37.13-.74.25-1.1.38Z"/>
    <path class="cls-1" d="m180.17,142.84c-.14.02-.28.05-.42.07.08-.36.16-.72.24-1.08.06.34.12.67.18,1.01Z"/>
    <path class="cls-1" d="m148.68,146.31c.33.05.66.11,1,.16-.33-.05-.66-.11-1-.16Z"/>
    <path class="cls-1" d="m179.74,144.26c.1.24.2.48.29.72-.1-.24-.2-.48-.29-.72Z"/>
    <path class="cls-1" d="m156.42,146.4c.14-.04.27-.09.41-.13-.14.04-.27.09-.41.13Z"/>
    <path class="cls-1" d="m222.17,145.73c0-.12,0-.24.01-.36,0,.12,0,.24-.01.36Z"/>
    <path class="cls-1" d="m209.75,128.45c-1.02.46-1.94,1.83-3.19.38-.37-.65-.74-1.3-1.11-1.95,1.73-1.04,1.75-2.68,1.52-4.59-.51-.07-1.07-.14-1.63-.21-.16-1.15,1.16-2.73-.94-3.33-.85-.78-1.69-1.55-2.54-2.32.41-.61.82-1.23,1.23-1.84.19.12.39.24.58.36.73.83,1.37,1.76,2.22,2.45.4.33,1.18.19,1.79.27-.02-.54-.04-1.08-.06-1.62.42.77.83,1.54,1.45,2.66.37-.09,1.22-.29,2.08-.5.03.34.07.69.1,1.03,0,.83-.02,1.66-.03,2.49-.5,0-.99.01-1.49.02-.03-.35.07-.8-.1-1.04-.29-.38-.76-.62-1.15-.92-.17.28-.54.64-.47.83.15.42.49.82.84,1.1.18.14.57.02.87.02.01,2.23.02,4.47.03,6.7Z"/>
    <path class="cls-1" d="m223.11,141.8c-.19-.35-.38-.7-.57-1.05-.46-1.49-1.04-2.96-1.35-4.49-.37-1.84-.52-3.72-.76-5.58.04-.23.07-.46.11-.69.68-.28,1.35-.57,2.04-.83.58-.22,1.18-.41,1.77-.61.03,1.08.06,2.16.09,3.24-.37.87-.98,1.72-1.04,2.6-.09,1.25.24,2.52.39,3.78l.26.36.04.04c.15.93.29,1.85.44,2.78.03.5.07.99.11,1.68-.61-.5-1.07-.87-1.52-1.24Z"/>
    <path class="cls-1" d="m216.58,121.77c.1,1.2.2,2.4.3,3.61-1.89-1.22-3.78-2.43-5.66-3.65.01-.83.02-1.66.03-2.49.2,0,.39.01.59.02.09,1.12.68,1.68,1.8,1.85.99.14,1.97.44,2.95.66Z"/>
    <path class="cls-1" d="m195.42,107.81c-1.22-.17-2.43-.35-3.27-.47-.13-1.06-.23-1.87-.33-2.68.38-.02.76-.04,1.14-.05,1.15-.08,2.08.21,2.48,1.43,0,.59-.02,1.18-.03,1.77Z"/>
    <path class="cls-1" d="m206.17,110.37c1.56-1.02,3.79-.12,4.01,1.67.04.32-.43.7-.66,1.05-.39-.34-1.05-.63-1.13-1.03-.21-1.15-.41-2.06-1.88-1.36-.11-.11-.22-.21-.34-.32Z"/>
    <path class="cls-1" d="m228.8,127.39c-.5-.27-.99-.53-1.49-.8.47-.66.94-1.31,1.4-1.97.11,0,.22.01.33.02.72,1.07,1.44,2.13,2.16,3.2-.15.07-.3.14-.45.21-.65-.22-1.3-.43-1.96-.65Z"/>
    <path class="cls-1" d="m206.17,110.37c.11.11.22.21.34.32-.13.36-.26.73-.39,1.09-.1.1-.2.2-.3.29,0,0-.06.05-.06.05-.71,0-1.43-.02-2.14-.02-.13-2.03,1.3-1.74,2.55-1.74Z"/>
    <path class="cls-1" d="m197.23,105.75c-.4-.58-.8-1.16-1.2-1.74.59-.26,1.18-.53,1.77-.79.2.46.39.92.59,1.38-.03.37-.06.73-.08,1.1-.36.02-.71.03-1.07.05Z"/>
    <path class="cls-1" d="m203.62,112.1c.71,0,1.43.02,2.14.02-.35.59-.7,1.18-1.06,1.77-1.67-.96-.79.61-1.04,1.06-.2-.12-.39-.24-.58-.36.18-.83.36-1.66.54-2.49Z"/>
    <path class="cls-1" d="m229.04,124.63c-.11,0-.22-.01-.33-.02.25-.96.5-1.91.75-2.87.22.01.44.02.66.03.12.48.23.95.35,1.43-.48.48-.95.95-1.43,1.43Z"/>
    <path class="cls-1" d="m230.12,121.78c-.22-.01-.44-.02-.66-.03.11-1.17.23-2.35.34-3.52.22,0,.45-.02.67-.03-.12,1.19-.23,2.38-.35,3.58Z"/>
    <path class="cls-1" d="m202.6,104.62c.69.16,1.38.32,2.07.48l-.09.71c-.66.08-1.32.15-1.98.23,0-.47,0-.95,0-1.42Z"/>
    <path class="cls-1" d="m220.05,130.71c-.11-.35-.22-.71-.33-1.06.27.11.54.23.81.34-.03.23-.07.46-.1.69-.12.01-.25.02-.37.03Z"/>
    <path class="cls-1" d="m205.83,112.08c.1-.1.2-.2.3-.29-.1.1-.2.2-.3.29Z"/>
    <path class="cls-1" d="m216.61,129.26c-.14-.11-.28-.22-.42-.33.14.11.28.22.42.33Z"/>
    <path class="cls-1" d="m176.4,108.83c.27-1.09.39-2.29,1.88-2.43-.06,1.11-.12,2.22-.2,3.9-.87-.77-1.27-1.12-1.68-1.48Z"/>
    <path class="cls-1" d="m205.49,101.03c.35.25.7.49,1.04.74-.55,1.84-1.27,2.09-3.12.83.74-.56,1.41-1.06,2.08-1.57Z"/>
    <path class="cls-1" d="m192.65,102.45c-.5,0-1.01-.01-1.51-.02.78-.81,1.51-1.66,2.35-2.4.41-.36,1-.51,1.51-.76.08.13.16.26.24.39-.86.93-1.72,1.86-2.59,2.79Z"/>
    <path class="cls-1" d="m192.57,94.21c-.11.49-.22.98-.33,1.47-.69.77-1.38,1.53-2.07,2.3-.43-2.19,1.45-2.64,2.41-3.77Z"/>
    <path class="cls-1" d="m186.51,111.15c-.23-.06-.46-.11-.7-.17,0-.82,0-1.65.04-2.47,0,0,.6,0,.6,0,.04.88.04,1.75.05,2.63Z"/>
    <path class="cls-1" d="m186.43,93.17c.37.32.74.65,1.11.97-.98.17-1.97.33-2.95.5-.06-.31-.12-.63-.18-.94.68-.17,1.35-.35,2.03-.52Z"/>
    <path class="cls-1" d="m198.39,104.6c-.2-.46-.39-.92-.59-1.38.7.16,1.41.32,2.11.49-.01.22-.02.44-.03.66-.5.08-.99.16-1.49.23Z"/>
    <path class="cls-1" d="m204.74,99.63c.14.09.28.18.42.28-.14-.09-.28-.18-.42-.28Z"/>
    <path class="cls-1" d="m192.98,103.91c-.03-.11-.04-.23-.03-.35.03.08.07.15.09.23,0,.03-.03.08-.05.12Z"/>
    <path class="cls-1" d="m186.19,103.56c.05-.15.1-.31.15-.46-.05.15-.1.31-.15.46Z"/>
    <path class="cls-1" d="m192.92,103.52c-.08-.12-.15-.25-.23-.37.08.12.15.25.23.37Z"/>
    <path class="cls-1" d="m190.84,166.81c-.13-.1-.27-.19-.4-.29.13.1.27.19.4.29Z"/>
    <path class="cls-1" d="m185.14,182.55c0,.12,0,.24,0,.36,0-.12,0-.24,0-.36Z"/>
    <path class="cls-1" d="m278.16,171.78c0,.27,0,.53.01.8,0-.27,0-.53-.01-.8Z"/>
    <path class="cls-1" d="m278.26,175.35c.04.1.09.2.12.3.01.04-.03.1-.05.16-.05-.1-.11-.2-.14-.3-.01-.04.04-.1.07-.15Z"/>
    <path class="cls-1" d="m278.21,167.07c-.02.17-.05.34-.07.5.02-.17.05-.34.07-.5Z"/>
    <path class="cls-1" d="m82.4,183.24c0,.37.01.74.02,1.11,0-.37-.01-.74-.02-1.11Z"/>
    <path class="cls-1" d="m82.43,168.95c0,.25,0,.5-.01.75,0-.25,0-.5.01-.75Z"/>
    <path class="cls-1" d="m82.39,173.22c0,.14,0,.29,0,.43-.03-.1-.08-.2-.09-.3,0-.04.07-.09.1-.13Z"/>
    <path class="cls-1" d="m155.02,269.46c-.82.4-1.68.74-2.44,1.23-1.61,1.03-3.27,1.6-5.17.98.05-.14.09-.39.15-.4,3.17-.32,5.22-2.5,7.44-4.41,0,.86,0,1.73,0,2.59Z"/>
    <path class="cls-1" d="m181.9,259.8c-.78.74-1.56,1.47-2.34,2.21.03-.52-.02-1.05.11-1.54.18-.71.49-1.4.75-2.09.36.12.71.25,1.07.37.14.35.27.7.41,1.06Z"/>
    <path class="cls-1" d="m51.17,171.87c0-1.7,0-3.41-.01-5.11,0,1.7,0,3.41.01,5.11Z"/>
    <path class="cls-1" d="m51.17,179.02c0-.27,0-.54,0-.82,0,.27,0,.54,0,.82Z"/>
    <path class="cls-1" d="m51.18,173.3c0-.27,0-.54,0-.81,0,.27,0,.54,0,.81Z"/>
    <path class="cls-1" d="m51.17,180.45c0-.27,0-.55,0-.82,0,.27,0,.55,0,.82Z"/>
    <path class="cls-1" d="m51.17,176.16c0-.27,0-.54,0-.81,0,.27,0,.54,0,.81Z"/>
    <path class="cls-1" d="m51.17,177.59c0-.27,0-.54,0-.82,0,.27,0,.54,0,.82Z"/>
    <path class="cls-1" d="m135.74,269.78c.95-.84,1.9-1.67,2.85-2.51.47.61.95,1.21,1.42,1.82-.57.1-1.21.07-1.69.33-.58.32-1.03.88-1.54,1.34-.35-.33-.7-.65-1.05-.98Z"/>
    <path class="cls-1" d="m118.94,252.52c.03.4.21.89.05,1.19-2.48,4.83-4.99,9.64-7.53,14.44-.43.82-1.03,1.54-1.55,2.31-1.03-.36-2.06-.71-3.09-1.07.62-1.23,1.24-2.46,1.87-3.68,1.84-3.58,3.8-7.11,5.49-10.76.8-1.72,1.69-2.74,3.69-2.36.34.06.71-.05,1.06-.08Z"/>
    <path class="cls-1" d="m233.04,126.04c-.13-1.23.21-2.68-1.46-3.21-.12-.59-.24-1.17-.38-1.85,2.74.47,3.93,1.74,3.67,4.04-.05.41-1.19.69-1.82,1.03Z"/>
    <path class="cls-1" d="m225.55,138.97c0-.62.01-1.24.02-1.86,0,.62-.01,1.24-.02,1.86Z"/>
    <path class="cls-1" d="m172.57,229.18c0-2.93,0-5.47,0-8.02,0-4.52.04-9.04-.03-13.55-.02-1.3.43-1.61,1.67-1.89,2.72-.59,5.26,0,7.78.73,3.59,1.03,5.26,3.62,5.65,7.33.33,3.24.04,6.35-1.14,9.31-1.41,3.53-4.26,5.27-8,5.58-1.87.16-3.74.32-5.92.51Z"/>
    <path class="cls-1" d="m139.19,210.94c.99,2.31,1.82,4.16,2.56,6.05.11.28-.16,1.03-.29,1.04-1.52.11-3.04.14-4.56.1-.14,0-.47-.75-.36-1.02.76-1.91,1.62-3.79,2.65-6.16Z"/>
    <path class="cls-1" d="m64.37,211c1.3,2.23,2.58,3.98,2.72,6.26.02.33-.45.96-.74.98-1.29.11-2.61.11-3.9-.02-.24-.02-.66-.97-.53-1.32.66-1.82,1.46-3.58,2.44-5.9Z"/>
    <path class="cls-1" d="m161.2,134.58c-.26-.93-.51-1.87-.77-2.8.51.05,1.04.21,1.53.13,1.14-.19,1.79.23,2,1.35-.41-.18-.83-.37-1.48-.66-.16,1.03-.3,1.88-.43,2.72,0,0-.15.02-.15.02-.24-.26-.47-.51-.71-.77Z"/>
    <path class="cls-1" d="m161.91,135.34s.15-.02.15-.02c.07.14.14.28.21.41-.05.02-.14.05-.14.04-.08-.14-.15-.29-.22-.43Z"/>
    <path class="cls-1" d="m203.63,136.08c-.95-.92-1.96-1.7-3.41-1.46.07-.58.13-1.17.2-1.75.89-1.07,2.54-1.55,2.57-3.29.32.27.63.54.95.82,0,.45,0,.91,0,1.36,0,.48-.01.96-.02,1.44h.13c-.03.26-.07.52-.1.78-.1.7-.2,1.4-.3,2.1Z"/>
    <path class="cls-1" d="m193.56,143.19c-.21-1.44-.42-2.88-.62-4.32-.09-.61.1-1.47-1.03-1.01.02-.25.03-.5.05-.74-.01-.34-.03-.69-.04-1.03-.1-1.2-.21-2.41-.31-3.61.42,0,.83,0,1.25,0,.14,1.04.34,2.08.4,3.12.14,2.53.2,5.07.3,7.6Z"/>
    <path class="cls-1" d="m193.62,145.72c0-.58-.02-1.17-.03-1.75,0,.58.02,1.17.03,1.75Z"/>
    <path class="cls-1" d="m191.92,136.09c.01.34.03.69.04,1.03-.01-.34-.03-.69-.04-1.03Z"/>
    <path class="cls-1" d="m150.42,126.42c.24.12.47.23.71.35-.24-.12-.47-.23-.71-.35Z"/>
    <path class="cls-1" d="m145.04,133.2c-.11-.12-.21-.23-.32-.35.11.12.21.23.32.35Z"/>
    <path class="cls-1" d="m151.11,128.59c-.01.11-.07.2-.16.27-.03-.14.02-.23.16-.27Z"/>
    <path class="cls-1" d="m150.01,126.11c.13.1.26.19.39.29-.13-.1-.26-.19-.39-.29Z"/>
    <path class="cls-1" d="m182.48,140.84c-.08-.16-.17-.33-.25-.49.08.16.17.33.25.49Z"/>
    <path class="cls-1" d="m158.09,132.53c-.27,0-.54-.01-.81-.02-.11-.03-.22-.06-.32-.08,0-.21-.01-.43-.02-.64,0-.25,0-.5,0-.75,0-.22.01-.45.02-.67,0-.25.02-.5.02-.75,0-.7,0-1.41-.01-2.11.18-.48.35-.96.53-1.45.48,0,.96,0,1.44,0-.25,1.28-.55,2.55-.74,3.84-.12.86-.09,1.75-.12,2.62Z"/>
    <path class="cls-1" d="m157.18,134.64c-.02.47-.04.94-.06,1.42-.08-.48-.16-.96-.25-1.45.1.02.2.03.31.03Z"/>
    <path class="cls-1" d="m157.13,136.8c0,.35.01.7.02,1.04,0-.35-.01-.7-.02-1.04Z"/>
    <path class="cls-1" d="m156.99,129.62c0,.25-.02.5-.02.75,0-.25.02-.5.02-.75Z"/>
    <path class="cls-1" d="m156.94,131.05c0,.25,0,.5,0,.75,0-.25,0-.5,0-.75Z"/>
    <path class="cls-1" d="m156.95,132.44c.11.02.22.05.32.08-.07.24-.13.49-.2.73-.04-.27-.08-.54-.12-.81Z"/>
    <path class="cls-1" d="m157.18,134.64c-.1,0-.21-.01-.31-.03.08-.24.16-.47.25-.71.02.25.04.49.06.74Z"/>
    <path class="cls-1" d="m192.54,120.3c-.73-.39-1.46-.78-2.18-1.17.27-.66.54-1.31.81-1.97,1.76.1,1.92,1.28,1.81,2.65-.02.14-.04.28-.06.43-.12.02-.25.04-.37.06Z"/>
    <path class="cls-1" d="m196.87,118.93c-.32.02-.65.04-.97.06-.44-.36-.88-.71-1.32-1.07.37-.44.73-.87,1.1-1.31.3.31.7.57.89.93.2.41.21.91.31,1.38Z"/>
    <path class="cls-1" d="m195.07,120.08c-.34,0-.68,0-1.03,0,.23-.05.47-.09.7-.14.11.04.22.09.32.14Z"/>
    <path class="cls-1" d="m160.45,130.71c.01-.12.02-.24.03-.37-.01.12-.02.24-.03.37Z"/>
    <path class="cls-1" d="m171.77,106.04c.73,0,1.45,0,2.18,0-.09.72-.18,1.43-.27,2.15-.61-.48-1.22-.97-1.82-1.45-.03-.23-.05-.46-.08-.69Z"/>
    <path class="cls-1" d="m205.34,122.08c.56.07,1.12.14,1.63.21.23,1.91.21,3.55-1.52,4.59-.34,0-.67,0-1.01,0-.38-.27-.75-.54-1.13-.8,0-.12,0-.25,0-.37.36-.48.71-.96,1.07-1.43,1.93-.04,1.34-.89.58-1.79.12-.13.25-.26.38-.4Z"/>
    <path class="cls-1" d="m203.31,126.07c.38.27.75.54,1.13.8-.17,1.17-.34,2.35-.51,3.53-.32-.27-.63-.54-.95-.82.11-1.17.22-2.34.33-3.51Z"/>
    <path class="cls-1" d="m203.63,136.08c.1-.7.2-1.4.3-2.1.04-.05.1-.07.16-.06,0,.71,0,1.42,0,2.13,0,.48.01.95.02,1.43-.04.6-.07,1.21-.11,1.81-.12-1.07-.25-2.14-.37-3.21Z"/>
    <path class="cls-1" d="m204.09,136.05c0-.71,0-1.42,0-2.13,0,.71,0,1.42,0,2.13Z"/>
    <path class="cls-1" d="m148.45,141.53c-.1-1.34-.2-2.68-.3-4.02.1,1.34.2,2.68.3,4.02Z"/>
    <path class="cls-1" d="m148.3,145.05c.06-.38.12-.76.18-1.14-.06.38-.12.76-.18,1.14Z"/>
    <path class="cls-1" d="m148.5,142.89c0-.26-.01-.53-.02-.79,0,.26.01.53.02.79Z"/>
    <path class="cls-1" d="m158.26,135.71c0-.23-.02-.47-.03-.7,0,.23.02.47.03.7Z"/>
    <path class="cls-1" d="m158.22,134.29c-.03-.08-.07-.16-.08-.24,0-.03.04-.08.06-.12,0,.12.02.24.02.36Z"/>
    <path class="cls-1" d="m214.73,137.82c-.01.27-.03.54-.04.81.01-.27.03-.54.04-.81Z"/>
    <path class="cls-1" d="m209.72,121.75c-.3,0-.69.12-.87-.02-.36-.29-.69-.68-.84-1.1-.07-.19.3-.55.47-.83.39.3.86.54,1.15.92.18.24.08.68.1,1.04,0,0,0,0,0,0Z"/>
    <path class="cls-1" d="m223.78,138.18c.09.12.17.24.26.36-.09-.12-.17-.24-.26-.36Z"/>
    <path class="cls-1" d="m203.92,131.76c0,.48-.01.96-.02,1.44,0-.48.01-.96.02-1.44Z"/>
  </g>
</svg>